<svg width="611" height="184" viewBox="0 0 611 184" fill="none" xmlns="http://www.w3.org/2000/svg">
<path d="M194.569 36.133V64.1253H231.638V82.0496H194.569V124H169.475V18.285H238.96L236.367 36.133H194.569ZM290.233 40.328C298.572 40.328 305.665 42.1077 311.513 45.6671C317.361 49.2266 321.835 54.2352 324.937 60.693C328.039 67.1 329.59 74.6256 329.59 83.27C329.59 92.2702 328.013 100.025 324.861 106.533C321.759 112.991 317.284 117.949 311.437 121.407C305.589 124.864 298.521 126.593 290.233 126.593C281.995 126.593 274.927 124.89 269.029 121.483C263.181 118.076 258.681 113.144 255.528 106.686C252.426 100.228 250.876 92.4736 250.876 83.4225C250.876 74.829 252.426 67.3034 255.528 60.8456C258.681 54.3877 263.181 49.3537 269.029 45.7434C274.927 42.1331 281.995 40.328 290.233 40.328ZM290.233 58.0997C285.3 58.0997 281.639 60.1337 279.249 64.2016C276.91 68.2187 275.741 74.6256 275.741 83.4225C275.741 92.3719 276.91 98.8552 279.249 102.872C281.639 106.889 285.3 108.898 290.233 108.898C295.165 108.898 298.801 106.889 301.14 102.872C303.53 98.8552 304.725 92.3211 304.725 83.27C304.725 74.5239 303.53 68.1424 301.14 64.1253C298.801 60.1083 295.165 58.0997 290.233 58.0997ZM347.378 124V107.83H358.056V59.015H347.378V42.9976H376.438L380.862 61.2269C383.761 54.2606 387.447 49.074 391.922 45.6671C396.447 42.2603 401.965 40.5568 408.473 40.5568C411.219 40.5568 413.66 40.7856 415.795 41.2433C417.931 41.6501 419.94 42.2348 421.821 42.9976L414.499 62.9049C413.024 62.4982 411.55 62.1931 410.075 61.9897C408.6 61.7863 406.973 61.6846 405.193 61.6846C399.905 61.6846 395.253 63.8456 391.235 68.1678C387.269 72.49 384.244 77.9817 382.159 84.6429V107.83H398.176V124H347.378ZM402.219 76.863V53.2182L405.804 42.9976H421.821L417.321 76.863H402.219ZM581.113 8.29313C587.012 8.29313 592.224 8.7762 596.75 9.74233C601.275 10.6576 605.318 11.878 608.877 13.4035L602.241 29.1158C599.445 28.048 596.572 27.2852 593.622 26.8276C590.673 26.3191 587.749 26.0649 584.851 26.0649C580.071 26.0649 576.639 26.9293 574.554 28.6582C572.52 30.387 571.503 33.26 571.503 37.2771V48.1079H597.894L595.224 64.8118H571.503V124H547.553V64.8118H530.544V48.1079H547.553V36.3618C547.553 31.0226 548.824 26.2428 551.367 22.0224C553.909 17.8019 557.672 14.4713 562.655 12.0305C567.639 9.53893 573.791 8.29313 581.113 8.29313Z" fill="#8216FD"/>
<path d="M487.586 42.9976V107.525H508.179V124H440.525V107.525H463.483V59.4726H441.288V42.9976H487.586ZM473.017 0.589514C477.187 0.589514 480.594 1.88616 483.238 4.47946C485.882 7.07276 487.204 10.3017 487.204 14.1662C487.204 18.0307 485.882 21.285 483.238 23.9292C480.594 26.5225 477.187 27.8191 473.017 27.8191C468.797 27.8191 465.339 26.5225 462.644 23.9292C460 21.285 458.678 18.0307 458.678 14.1662C458.678 10.3017 460 7.07276 462.644 4.47946C465.339 1.88616 468.797 0.589514 473.017 0.589514Z" fill="#C921AA"/>
<path d="M178.781 156.423V158.269H174.716V172.868H178.781V174.715H168.313V172.868H172.378V158.269H168.313V156.423H178.781ZM184.177 174.715V160.727H186.077L186.249 162.666C186.816 161.949 187.524 161.4 188.375 161.019C189.234 160.63 190.066 160.435 190.872 160.435C192.245 160.435 193.241 160.798 193.861 161.524C194.49 162.25 194.804 163.26 194.804 164.553V174.715H192.572V166.2C192.572 165.243 192.519 164.473 192.413 163.889C192.307 163.295 192.085 162.866 191.749 162.6C191.412 162.325 190.89 162.188 190.181 162.188C189.632 162.188 189.114 162.308 188.627 162.547C188.149 162.786 187.719 163.087 187.339 163.45C186.967 163.804 186.657 164.163 186.409 164.526V174.715H184.177ZM211.213 174.011C210.734 174.33 210.154 174.578 209.472 174.755C208.79 174.932 208.122 175.02 207.466 175.02C205.961 175.02 204.801 174.626 203.986 173.838C203.171 173.05 202.764 172.036 202.764 170.796V162.454H199.549V160.727H202.764V157.552L204.996 157.286V160.727H209.831L209.565 162.454H204.996V170.77C204.996 171.549 205.199 172.142 205.607 172.55C206.023 172.957 206.709 173.161 207.666 173.161C208.188 173.161 208.671 173.099 209.114 172.975C209.556 172.851 209.968 172.691 210.349 172.496L211.213 174.011ZM217.791 168.511C217.835 169.592 218.043 170.477 218.415 171.168C218.787 171.85 219.279 172.355 219.89 172.682C220.501 173.001 221.165 173.161 221.882 173.161C222.6 173.161 223.246 173.054 223.822 172.842C224.406 172.629 225.004 172.315 225.615 171.899L226.665 173.373C226.009 173.887 225.261 174.29 224.42 174.582C223.587 174.874 222.733 175.02 221.856 175.02C220.501 175.02 219.345 174.715 218.389 174.104C217.432 173.493 216.702 172.643 216.197 171.553C215.701 170.455 215.453 169.184 215.453 167.741C215.453 166.324 215.705 165.066 216.21 163.968C216.715 162.87 217.423 162.007 218.336 161.378C219.248 160.749 220.324 160.435 221.564 160.435C222.741 160.435 223.755 160.714 224.606 161.272C225.456 161.821 226.107 162.609 226.558 163.636C227.019 164.655 227.249 165.872 227.249 167.289C227.249 167.528 227.245 167.754 227.236 167.967C227.227 168.17 227.214 168.352 227.196 168.511H217.791ZM221.59 162.268C220.554 162.268 219.686 162.635 218.986 163.37C218.296 164.106 217.902 165.243 217.804 166.784H225.097C225.07 165.288 224.743 164.163 224.114 163.41C223.485 162.649 222.644 162.268 221.59 162.268ZM237.414 155.095V171.261C237.414 171.952 237.627 172.443 238.052 172.736C238.486 173.019 239.044 173.161 239.725 173.161C240.151 173.161 240.553 173.116 240.934 173.028C241.315 172.939 241.696 172.82 242.077 172.669L242.674 174.303C242.294 174.489 241.82 174.653 241.253 174.795C240.695 174.945 240.062 175.02 239.354 175.02C238.114 175.02 237.109 174.679 236.338 173.998C235.568 173.307 235.182 172.355 235.182 171.142V156.861H230.892V155.095H237.414ZM253.344 155.095V171.261C253.344 171.952 253.557 172.443 253.982 172.736C254.416 173.019 254.974 173.161 255.656 173.161C256.081 173.161 256.484 173.116 256.865 173.028C257.245 172.939 257.626 172.82 258.007 172.669L258.605 174.303C258.224 174.489 257.75 174.653 257.183 174.795C256.625 174.945 255.992 175.02 255.284 175.02C254.044 175.02 253.039 174.679 252.268 173.998C251.498 173.307 251.113 172.355 251.113 171.142V156.861H246.822V155.095H253.344ZM270.908 160.727V172.948H274.854V174.715H264.36V172.948H268.677V162.494H264.492V160.727H270.908ZM269.128 154.178C269.624 154.178 270.018 154.329 270.311 154.63C270.612 154.931 270.762 155.298 270.762 155.732C270.762 156.184 270.612 156.565 270.311 156.875C270.018 157.176 269.624 157.326 269.128 157.326C268.659 157.326 268.274 157.176 267.973 156.875C267.672 156.565 267.521 156.184 267.521 155.732C267.521 155.298 267.672 154.931 267.973 154.63C268.274 154.329 268.659 154.178 269.128 154.178ZM291.129 159.239L291.82 161.338C291.227 161.524 290.594 161.639 289.921 161.683C289.248 161.728 288.517 161.75 287.729 161.75C288.535 162.122 289.141 162.604 289.549 163.198C289.956 163.782 290.16 164.473 290.16 165.27C290.16 166.191 289.952 167.01 289.535 167.728C289.119 168.445 288.517 169.007 287.729 169.415C286.949 169.822 286.006 170.026 284.899 170.026C284.43 170.026 284.036 170.004 283.717 169.959C283.407 169.915 283.106 169.849 282.814 169.76C282.601 169.902 282.424 170.097 282.282 170.344C282.15 170.592 282.083 170.849 282.083 171.115C282.083 171.451 282.216 171.73 282.482 171.952C282.747 172.173 283.239 172.284 283.956 172.284H286.48C287.419 172.284 288.26 172.452 289.004 172.789C289.757 173.125 290.346 173.577 290.771 174.144C291.205 174.71 291.422 175.357 291.422 176.083C291.422 177.456 290.837 178.51 289.668 179.245C288.508 179.98 286.865 180.347 284.74 180.347C283.252 180.347 282.079 180.192 281.22 179.882C280.361 179.581 279.745 179.116 279.373 178.487C279.01 177.868 278.829 177.084 278.829 176.136H280.848C280.848 176.676 280.954 177.124 281.167 177.478C281.379 177.832 281.764 178.093 282.322 178.262C282.88 178.439 283.682 178.527 284.727 178.527C285.754 178.527 286.591 178.439 287.237 178.262C287.893 178.093 288.375 177.837 288.685 177.491C289.004 177.155 289.163 176.734 289.163 176.229C289.163 175.565 288.862 175.065 288.26 174.728C287.658 174.392 286.905 174.223 286.002 174.223H283.504C282.3 174.223 281.41 173.958 280.834 173.426C280.268 172.895 279.984 172.284 279.984 171.593C279.984 171.142 280.113 170.703 280.369 170.278C280.635 169.853 281.02 169.477 281.525 169.149C280.719 168.724 280.126 168.197 279.745 167.568C279.364 166.939 279.174 166.178 279.174 165.283C279.174 164.336 279.409 163.499 279.878 162.773C280.347 162.038 281.003 161.462 281.844 161.046C282.685 160.63 283.655 160.421 284.753 160.421C285.931 160.413 286.887 160.364 287.622 160.275C288.357 160.178 288.986 160.041 289.509 159.864C290.04 159.686 290.58 159.478 291.129 159.239ZM284.753 162.055C283.628 162.055 282.796 162.361 282.256 162.972C281.724 163.574 281.459 164.345 281.459 165.283C281.459 166.231 281.733 167.01 282.282 167.621C282.831 168.232 283.673 168.538 284.806 168.538C285.798 168.538 286.551 168.25 287.065 167.674C287.587 167.099 287.848 166.297 287.848 165.27C287.848 164.216 287.587 163.419 287.065 162.879C286.551 162.33 285.78 162.055 284.753 162.055ZM297.442 168.511C297.486 169.592 297.695 170.477 298.066 171.168C298.438 171.85 298.93 172.355 299.541 172.682C300.152 173.001 300.816 173.161 301.534 173.161C302.251 173.161 302.897 173.054 303.473 172.842C304.057 172.629 304.655 172.315 305.266 171.899L306.316 173.373C305.66 173.887 304.912 174.29 304.071 174.582C303.238 174.874 302.384 175.02 301.507 175.02C300.152 175.02 298.996 174.715 298.04 174.104C297.083 173.493 296.353 172.643 295.848 171.553C295.352 170.455 295.104 169.184 295.104 167.741C295.104 166.324 295.357 165.066 295.861 163.968C296.366 162.87 297.075 162.007 297.987 161.378C298.899 160.749 299.975 160.435 301.215 160.435C302.393 160.435 303.407 160.714 304.257 161.272C305.107 161.821 305.758 162.609 306.209 163.636C306.67 164.655 306.9 165.872 306.9 167.289C306.9 167.528 306.896 167.754 306.887 167.967C306.878 168.17 306.865 168.352 306.847 168.511H297.442ZM301.241 162.268C300.205 162.268 299.337 162.635 298.638 163.37C297.947 164.106 297.553 165.243 297.455 166.784H304.748C304.722 165.288 304.394 164.163 303.765 163.41C303.136 162.649 302.295 162.268 301.241 162.268ZM311.619 174.715V160.727H313.518L313.691 162.666C314.258 161.949 314.966 161.4 315.817 161.019C316.676 160.63 317.508 160.435 318.314 160.435C319.687 160.435 320.683 160.798 321.303 161.524C321.932 162.25 322.246 163.26 322.246 164.553V174.715H320.014V166.2C320.014 165.243 319.961 164.473 319.855 163.889C319.749 163.295 319.527 162.866 319.191 162.6C318.854 162.325 318.332 162.188 317.623 162.188C317.074 162.188 316.556 162.308 316.069 162.547C315.591 162.786 315.161 163.087 314.78 163.45C314.409 163.804 314.099 164.163 313.851 164.526V174.715H311.619ZM333.872 173.094C334.572 173.094 335.223 172.979 335.825 172.749C336.436 172.519 336.998 172.226 337.512 171.872L338.601 173.333C337.99 173.856 337.255 174.268 336.396 174.569C335.537 174.87 334.696 175.02 333.872 175.02C332.482 175.02 331.295 174.724 330.312 174.13C329.338 173.528 328.594 172.687 328.08 171.606C327.567 170.517 327.31 169.242 327.31 167.781C327.31 166.381 327.567 165.128 328.08 164.021C328.603 162.906 329.351 162.029 330.325 161.391C331.308 160.754 332.5 160.435 333.899 160.435C334.793 160.435 335.63 160.572 336.409 160.847C337.198 161.112 337.919 161.515 338.575 162.055L337.485 163.543C336.892 163.127 336.294 162.817 335.692 162.613C335.099 162.401 334.492 162.294 333.872 162.294C332.668 162.294 331.676 162.746 330.897 163.649C330.117 164.553 329.728 165.93 329.728 167.781C329.728 169.021 329.905 170.035 330.259 170.823C330.622 171.602 331.114 172.178 331.734 172.55C332.362 172.913 333.075 173.094 333.872 173.094ZM345.233 168.511C345.277 169.592 345.485 170.477 345.857 171.168C346.229 171.85 346.721 172.355 347.332 172.682C347.943 173.001 348.607 173.161 349.324 173.161C350.042 173.161 350.688 173.054 351.264 172.842C351.848 172.629 352.446 172.315 353.057 171.899L354.106 173.373C353.451 173.887 352.703 174.29 351.862 174.582C351.029 174.874 350.174 175.02 349.298 175.02C347.943 175.02 346.787 174.715 345.831 174.104C344.874 173.493 344.144 172.643 343.639 171.553C343.143 170.455 342.895 169.184 342.895 167.741C342.895 166.324 343.147 165.066 343.652 163.968C344.157 162.87 344.865 162.007 345.778 161.378C346.69 160.749 347.766 160.435 349.005 160.435C350.183 160.435 351.197 160.714 352.047 161.272C352.898 161.821 353.549 162.609 354 163.636C354.461 164.655 354.691 165.872 354.691 167.289C354.691 167.528 354.687 167.754 354.678 167.967C354.669 168.17 354.656 168.352 354.638 168.511H345.233ZM349.032 162.268C347.996 162.268 347.128 162.635 346.428 163.37C345.738 164.106 345.344 165.243 345.246 166.784H352.539C352.512 165.288 352.185 164.163 351.556 163.41C350.927 162.649 350.086 162.268 349.032 162.268ZM362.359 172.669C362.359 172.235 362.46 171.846 362.664 171.5C362.868 171.146 363.142 170.867 363.488 170.663C363.842 170.451 364.241 170.344 364.683 170.344C365.135 170.344 365.538 170.451 365.892 170.663C366.246 170.867 366.525 171.146 366.729 171.5C366.933 171.846 367.035 172.235 367.035 172.669C367.035 173.103 366.933 173.502 366.729 173.865C366.525 174.219 366.246 174.502 365.892 174.715C365.538 174.919 365.135 175.02 364.683 175.02C364.241 175.02 363.842 174.919 363.488 174.715C363.142 174.502 362.868 174.219 362.664 173.865C362.46 173.502 362.359 173.103 362.359 172.669ZM402.854 169.654C402.854 170.699 402.592 171.629 402.07 172.443C401.547 173.249 400.79 173.882 399.798 174.343C398.806 174.795 397.598 175.02 396.172 175.02C394.835 175.02 393.621 174.817 392.532 174.409C391.452 174.002 390.526 173.426 389.756 172.682L391.124 171.142C391.762 171.735 392.492 172.209 393.316 172.563C394.139 172.908 395.105 173.081 396.212 173.081C396.956 173.081 397.651 172.961 398.297 172.722C398.944 172.474 399.466 172.102 399.865 171.606C400.263 171.102 400.463 170.464 400.463 169.694C400.463 169.1 400.347 168.595 400.117 168.179C399.887 167.763 399.48 167.395 398.895 167.077C398.311 166.749 397.496 166.43 396.451 166.12C395.246 165.766 394.201 165.367 393.316 164.925C392.439 164.473 391.757 163.92 391.27 163.264C390.792 162.609 390.553 161.799 390.553 160.833C390.553 159.921 390.805 159.111 391.31 158.402C391.815 157.694 392.51 157.14 393.396 156.742C394.29 156.334 395.317 156.131 396.477 156.131C397.744 156.131 398.842 156.312 399.772 156.675C400.711 157.03 401.561 157.543 402.322 158.216L400.967 159.717C400.312 159.133 399.608 158.712 398.855 158.455C398.102 158.19 397.336 158.057 396.557 158.057C395.893 158.057 395.282 158.159 394.724 158.362C394.175 158.557 393.732 158.854 393.396 159.252C393.068 159.642 392.904 160.142 392.904 160.754C392.904 161.276 393.046 161.728 393.329 162.108C393.613 162.489 394.091 162.839 394.764 163.158C395.437 163.468 396.353 163.796 397.514 164.141C398.461 164.415 399.338 164.761 400.144 165.177C400.958 165.584 401.614 166.142 402.11 166.851C402.606 167.55 402.854 168.485 402.854 169.654ZM414.281 160.727V172.948H418.226V174.715H407.732V172.948H412.049V162.494H407.865V160.727H414.281ZM412.501 154.178C412.997 154.178 413.391 154.329 413.683 154.63C413.984 154.931 414.135 155.298 414.135 155.732C414.135 156.184 413.984 156.565 413.683 156.875C413.391 157.176 412.997 157.326 412.501 157.326C412.031 157.326 411.646 157.176 411.345 156.875C411.044 156.565 410.893 156.184 410.893 155.732C410.893 155.298 411.044 154.931 411.345 154.63C411.646 154.329 412.031 154.178 412.501 154.178ZM432.35 160.435C432.801 160.435 433.231 160.532 433.638 160.727C434.054 160.922 434.395 161.298 434.661 161.856C434.927 162.414 435.06 163.229 435.06 164.3V174.715H432.987V164.659C432.987 163.782 432.934 163.149 432.828 162.759C432.722 162.37 432.416 162.175 431.911 162.175C431.495 162.175 431.079 162.308 430.663 162.573C430.255 162.83 429.857 163.255 429.467 163.849V174.715H427.381V164.659C427.381 163.782 427.328 163.149 427.222 162.759C427.116 162.37 426.81 162.175 426.305 162.175C425.872 162.175 425.451 162.308 425.043 162.573C424.645 162.83 424.251 163.255 423.861 163.849V174.715H421.802V160.727H423.556L423.689 162.348C424.069 161.807 424.494 161.356 424.964 160.993C425.442 160.621 426.031 160.435 426.731 160.435C427.262 160.435 427.762 160.563 428.232 160.82C428.701 161.068 429.046 161.555 429.268 162.281C429.649 161.732 430.078 161.289 430.556 160.953C431.035 160.607 431.632 160.435 432.35 160.435ZM445.318 160.435C446.557 160.435 447.545 160.736 448.28 161.338C449.024 161.94 449.56 162.79 449.887 163.889C450.215 164.978 450.379 166.253 450.379 167.714C450.379 169.122 450.179 170.38 449.781 171.487C449.391 172.585 448.798 173.448 448.001 174.077C447.204 174.706 446.199 175.02 444.985 175.02C443.453 175.02 442.222 174.48 441.293 173.4V180.068L439.061 180.347V160.727H440.96L441.146 162.68C441.66 161.962 442.271 161.409 442.98 161.019C443.697 160.63 444.476 160.435 445.318 160.435ZM444.786 162.228C444.016 162.228 443.334 162.463 442.74 162.932C442.156 163.393 441.673 163.906 441.293 164.473V171.407C441.656 171.947 442.112 172.377 442.661 172.696C443.219 173.006 443.83 173.161 444.494 173.161C445.654 173.161 446.526 172.718 447.111 171.832C447.695 170.947 447.988 169.57 447.988 167.701C447.988 166.479 447.872 165.465 447.642 164.659C447.412 163.844 447.062 163.238 446.593 162.839C446.123 162.432 445.521 162.228 444.786 162.228ZM460.437 155.095V171.261C460.437 171.952 460.65 172.443 461.075 172.736C461.509 173.019 462.067 173.161 462.749 173.161C463.174 173.161 463.577 173.116 463.958 173.028C464.339 172.939 464.719 172.82 465.1 172.669L465.698 174.303C465.317 174.489 464.843 174.653 464.277 174.795C463.719 174.945 463.085 175.02 462.377 175.02C461.137 175.02 460.132 174.679 459.361 173.998C458.591 173.307 458.206 172.355 458.206 171.142V156.861H453.915V155.095H460.437ZM478.002 160.727V172.948H481.947V174.715H471.453V172.948H475.77V162.494H471.586V160.727H478.002ZM476.222 154.178C476.718 154.178 477.112 154.329 477.404 154.63C477.705 154.931 477.856 155.298 477.856 155.732C477.856 156.184 477.705 156.565 477.404 156.875C477.112 157.176 476.718 157.326 476.222 157.326C475.752 157.326 475.367 157.176 475.066 156.875C474.765 156.565 474.614 156.184 474.614 155.732C474.614 155.298 474.765 154.931 475.066 154.63C475.367 154.329 475.752 154.178 476.222 154.178ZM495.114 154.816C495.867 154.816 496.549 154.882 497.16 155.015C497.771 155.148 498.351 155.334 498.9 155.573L498.183 157.233C497.731 157.038 497.253 156.892 496.748 156.795C496.243 156.698 495.721 156.649 495.181 156.649C494.206 156.649 493.471 156.839 492.975 157.22C492.488 157.601 492.245 158.185 492.245 158.974V161.816H496.987L496.748 163.57H492.245V174.715H490.013V163.57H486.679V161.816H490.013V159.027C490.013 158.159 490.235 157.41 490.677 156.782C491.129 156.153 491.74 155.67 492.51 155.334C493.281 154.988 494.149 154.816 495.114 154.816ZM509.862 161.816V172.948H513.807V174.715H503.313V172.948H507.63V163.57H503.446V161.816H509.862ZM508.082 155.148C508.578 155.148 508.972 155.298 509.264 155.599C509.565 155.901 509.716 156.268 509.716 156.702C509.716 157.154 509.565 157.534 509.264 157.844C508.972 158.145 508.578 158.296 508.082 158.296C507.613 158.296 507.228 158.145 506.926 157.844C506.625 157.534 506.475 157.154 506.475 156.702C506.475 156.268 506.625 155.901 506.926 155.599C507.228 155.298 507.613 155.148 508.082 155.148ZM520.466 168.511C520.51 169.592 520.718 170.477 521.09 171.168C521.462 171.85 521.953 172.355 522.564 172.682C523.175 173.001 523.84 173.161 524.557 173.161C525.274 173.161 525.921 173.054 526.496 172.842C527.081 172.629 527.679 172.315 528.29 171.899L529.339 173.373C528.684 173.887 527.935 174.29 527.094 174.582C526.262 174.874 525.407 175.02 524.53 175.02C523.175 175.02 522.02 174.715 521.063 174.104C520.107 173.493 519.376 172.643 518.871 171.553C518.376 170.455 518.128 169.184 518.128 167.741C518.128 166.324 518.38 165.066 518.885 163.968C519.39 162.87 520.098 162.007 521.01 161.378C521.922 160.749 522.998 160.435 524.238 160.435C525.416 160.435 526.43 160.714 527.28 161.272C528.13 161.821 528.781 162.609 529.233 163.636C529.693 164.655 529.924 165.872 529.924 167.289C529.924 167.528 529.919 167.754 529.91 167.967C529.902 168.17 529.888 168.352 529.871 168.511H520.466ZM524.265 162.268C523.229 162.268 522.361 162.635 521.661 163.37C520.97 164.106 520.576 165.243 520.479 166.784H527.772C527.745 165.288 527.417 164.163 526.789 163.41C526.16 162.649 525.319 162.268 524.265 162.268ZM543.011 154.816L545.243 155.095V174.715H543.29L543.078 172.868C542.555 173.612 541.953 174.157 541.271 174.502C540.598 174.848 539.876 175.02 539.106 175.02C537.892 175.02 536.892 174.715 536.104 174.104C535.315 173.493 534.731 172.643 534.35 171.553C533.969 170.455 533.779 169.184 533.779 167.741C533.779 166.342 533.996 165.093 534.43 163.995C534.864 162.888 535.488 162.02 536.303 161.391C537.126 160.754 538.114 160.435 539.265 160.435C540.071 160.435 540.779 160.576 541.391 160.86C542.002 161.134 542.542 161.542 543.011 162.082V154.816ZM539.85 162.228C538.681 162.228 537.782 162.684 537.153 163.596C536.524 164.508 536.21 165.89 536.21 167.741C536.21 168.945 536.338 169.955 536.595 170.77C536.852 171.584 537.228 172.195 537.724 172.603C538.229 173.01 538.844 173.214 539.571 173.214C540.368 173.214 541.045 172.988 541.603 172.536C542.17 172.085 542.639 171.575 543.011 171.009V164.021C542.63 163.455 542.17 163.016 541.63 162.706C541.089 162.387 540.496 162.228 539.85 162.228ZM553.522 172.669C553.522 172.235 553.623 171.846 553.827 171.5C554.031 171.146 554.305 170.867 554.651 170.663C555.005 170.451 555.403 170.344 555.846 170.344C556.298 170.344 556.701 170.451 557.055 170.663C557.409 170.867 557.688 171.146 557.892 171.5C558.096 171.846 558.197 172.235 558.197 172.669C558.197 173.103 558.096 173.502 557.892 173.865C557.688 174.219 557.409 174.502 557.055 174.715C556.701 174.919 556.298 175.02 555.846 175.02C555.403 175.02 555.005 174.919 554.651 174.715C554.305 174.502 554.031 174.219 553.827 173.865C553.623 173.502 553.522 173.103 553.522 172.669Z" fill="#560591"/>
<path d="M78.5717 18.6098H41.9187C18.696 18.6098 0 37.3064 0 60.5293V130.929C0 154.152 18.696 172.848 41.9187 172.848H83.6544L71.9105 158.167H44.4125C26.2697 158.167 11.6641 143.561 11.6641 125.418V65.5225C11.6641 47.3796 26.2697 32.7733 44.4125 32.7733H64.4081L78.5717 18.6098Z" fill="url(#paint0_linear_1_29)"/>
<path d="M76.5758 40.6931L68.0784 54.8566H82.2468C91.142 54.8566 98.3029 62.0174 98.3029 70.9127V122.431C98.3029 130.243 92.7773 136.709 85.4069 138.17L87.8527 150.397C101.739 146.601 111.902 133.969 111.902 118.845V111.511L120.233 94.8479L111.902 82.3506V73.4422C111.902 55.2993 97.2962 40.6931 79.1534 40.6931H76.5758Z" fill="url(#paint1_linear_1_29)"/>
<path d="M61.9127 25.7419H40.7252C21.1149 25.7419 5.30322 41.5536 5.30322 61.1639V104.013H6.87756V61.1639C6.87756 42.3986 21.9599 27.3163 40.7252 27.3163H61.9127V25.7419Z" fill="#560591"/>
<path d="M83.2542 26.5296H93.9298C113.118 26.5296 128.565 41.9768 128.565 61.1646V128.984C128.565 148.172 113.118 163.619 93.9298 163.619H90.2847" stroke="#560591" stroke-width="1.57446"/>
<path d="M61.9127 29.6785C63.6518 29.6785 65.0616 28.2687 65.0616 26.5296C65.0616 24.7905 63.6518 23.3806 61.9127 23.3806C60.1736 23.3806 58.7638 24.7905 58.7638 26.5296C58.7638 28.2687 60.1736 29.6785 61.9127 29.6785Z" fill="#1E046C" stroke="#1E046C" stroke-width="0.78723"/>
<path d="M5.81683 108.915C7.55593 108.915 8.96574 107.505 8.96574 105.766C8.96574 104.027 7.55593 102.617 5.81683 102.617C4.07773 102.617 2.66791 104.027 2.66791 105.766C2.66791 107.505 4.07773 108.915 5.81683 108.915Z" fill="#1E046C" stroke="#1E046C" stroke-width="0.78723"/>
<path d="M81.0751 29.6785C82.8142 29.6785 84.224 28.2687 84.224 26.5296C84.224 24.7905 82.8142 23.3806 81.0751 23.3806C79.336 23.3806 77.9262 24.7905 77.9262 26.5296C77.9262 28.2687 79.336 29.6785 81.0751 29.6785Z" fill="#7E00FF" stroke="#A562EA" stroke-width="0.78723"/>
<path d="M87.7403 166.314C89.4794 166.314 90.8892 164.904 90.8892 163.165C90.8892 161.426 89.4794 160.016 87.7403 160.016C86.0012 160.016 84.5914 161.426 84.5914 163.165C84.5914 164.904 86.0012 166.314 87.7403 166.314Z" fill="#7E00FF" stroke="#A562EA" stroke-width="0.78723"/>
<path d="M57.1693 40.6922C39.0264 40.6922 24.4209 55.2985 24.4209 73.4414V82.3506L16.0894 94.8479L24.4209 111.511V118.845C24.4209 136.988 39.0264 151.593 57.1693 151.593H60.7777C60.2371 151.2 59.6755 150.822 59.1846 150.392C58.3868 149.694 57.6612 148.943 57.0285 148.123C56.3959 147.304 55.8561 146.415 55.4306 145.443C55.2178 144.957 55.0337 144.45 54.8806 143.92C54.7275 143.39 54.6059 142.837 54.5177 142.259C54.4295 141.682 54.3747 141.079 54.3566 140.449C54.3387 139.823 54.3579 139.169 54.4144 138.487H52.9743C44.079 138.487 36.9182 131.326 36.9182 122.431V70.9127C36.9182 62.0175 44.079 54.8558 52.9743 54.8558H68.0784L76.5759 40.6922H57.1693Z" fill="url(#paint2_linear_1_29)"/>
<path d="M65.618 46.5723H55.8024C41.6873 46.5723 30.2977 57.9595 30.2977 72.0746V120.676H31.8721V72.0746C31.8721 58.8045 42.5323 48.1467 55.8024 48.1467H65.539L65.618 46.5723Z" fill="#C921AA"/>
<path d="M65.2453 51.3404C66.9844 51.3404 68.3942 49.9306 68.3942 48.1915C68.3942 46.4524 66.9844 45.0426 65.2453 45.0426C63.5062 45.0426 62.0964 46.4524 62.0964 48.1915C62.0964 49.9306 63.5062 51.3404 65.2453 51.3404Z" fill="#C921AA" stroke="#C921AA" stroke-width="0.78723"/>
<path d="M31.0861 122.991C32.8252 122.991 34.235 121.581 34.235 119.842C34.235 118.103 32.8252 116.693 31.0861 116.693C29.347 116.693 27.9371 118.103 27.9371 119.842C27.9371 121.581 29.347 122.991 31.0861 122.991Z" fill="#C921AA" stroke="#C921AA" stroke-width="0.78723"/>
<path d="M104.83 75.1061L103.255 76.0906V121.12C103.255 128.006 100.369 134.172 95.753 138.526L96.6284 139.84C101.664 135.185 104.83 128.54 104.83 121.12V75.1061Z" fill="#C921AA"/>
<path d="M103.57 78.0009C105.309 78.0009 106.719 76.5911 106.719 74.852C106.719 73.1129 105.309 71.7031 103.57 71.7031C101.831 71.7031 100.421 73.1129 100.421 74.852C100.421 76.5911 101.831 78.0009 103.57 78.0009Z" fill="#C921AA" stroke="#C921AA" stroke-width="0.78723"/>
<path d="M93.5725 143.819C95.3116 143.819 96.7214 142.409 96.7214 140.67C96.7214 138.931 95.3116 137.521 93.5725 137.521C91.8334 137.521 90.4236 138.931 90.4236 140.67C90.4236 142.409 91.8334 143.819 93.5725 143.819Z" fill="#C921AA" stroke="#C921AA" stroke-width="0.78723"/>
<path d="M52.3534 89.3422L73.9037 89.727C73.9037 89.727 73.7252 125.364 74.2886 137.831C74.4022 140.348 81.6003 139.755 81.6003 139.755V150.915C81.6003 150.915 72.4571 152.105 67.3617 151.3C67.3617 151.3 60.1696 148.014 60.0499 142.449C59.8143 131.49 60.3572 114.906 60.0499 103.196C59.9822 100.615 56.2999 97.4315 53.123 99.7326C50.3104 101.77 52.3534 89.3422 52.3534 89.3422Z" fill="#C921AA"/>
<path d="M62.7459 84.2991C67.9632 84.2991 72.1926 80.0696 72.1926 74.8523C72.1926 69.635 67.9632 65.4055 62.7459 65.4055C57.5286 65.4055 53.2991 69.635 53.2991 74.8523C53.2991 80.0696 57.5286 84.2991 62.7459 84.2991Z" fill="#C921AA"/>
<defs>
<linearGradient id="paint0_linear_1_29" x1="43.6327" y1="66.0479" x2="49.721" y2="198.468" gradientUnits="userSpaceOnUse">
<stop stop-color="#C370FF"/>
<stop offset="0.795222" stop-color="#8216FD"/>
<stop offset="1" stop-color="#8121C9"/>
</linearGradient>
<linearGradient id="paint1_linear_1_29" x1="78.5757" y1="61.5218" x2="129.277" y2="164.711" gradientUnits="userSpaceOnUse">
<stop stop-color="#A562EA"/>
<stop offset="0.73128" stop-color="#560591"/>
<stop offset="1" stop-color="#560591"/>
</linearGradient>
<linearGradient id="paint2_linear_1_29" x1="70.2442" y1="74.8516" x2="100.117" y2="148.048" gradientUnits="userSpaceOnUse">
<stop stop-color="#560591"/>
<stop offset="1" stop-color="#C370FF"/>
</linearGradient>
</defs>
</svg>
