<svg width="611" height="184" viewBox="0 0 611 184" fill="none" xmlns="http://www.w3.org/2000/svg">
<g clip-path="url(#clip0_2_3)">
<rect width="611" height="184" fill="white"/>
<g filter="url(#filter0_d_2_3)">
<path d="M195.268 35.133V63.1253H232.337V81.0496H195.268V123H170.174V17.285H239.659L237.066 35.133H195.268ZM290.932 39.328C299.271 39.328 306.365 41.1077 312.212 44.6671C318.06 48.2266 322.535 53.2352 325.636 59.693C328.738 66.1 330.289 73.6256 330.289 82.27C330.289 91.2702 328.713 99.0247 325.56 105.533C322.458 111.991 317.984 116.949 312.136 120.407C306.288 123.864 299.22 125.593 290.932 125.593C282.694 125.593 275.626 123.89 269.728 120.483C263.88 117.076 259.38 112.144 256.227 105.686C253.126 99.2281 251.575 91.4736 251.575 82.4225C251.575 73.829 253.126 66.3034 256.227 59.8456C259.38 53.3877 263.88 48.3537 269.728 44.7434C275.626 41.1331 282.694 39.328 290.932 39.328ZM290.932 57.0997C286 57.0997 282.338 59.1337 279.949 63.2016C277.609 67.2187 276.44 73.6256 276.44 82.4225C276.44 91.3719 277.609 97.8552 279.949 101.872C282.338 105.889 286 107.898 290.932 107.898C295.864 107.898 299.5 105.889 301.839 101.872C304.229 97.8552 305.424 91.3211 305.424 82.27C305.424 73.5239 304.229 67.1424 301.839 63.1253C299.5 59.1083 295.864 57.0997 290.932 57.0997ZM348.077 123V106.83H358.756V58.015H348.077V41.9976H377.138L381.561 60.2269C384.46 53.2606 388.146 48.074 392.621 44.6671C397.147 41.2603 402.664 39.5568 409.172 39.5568C411.918 39.5568 414.359 39.7856 416.495 40.2433C418.63 40.6501 420.639 41.2348 422.52 41.9976L415.198 61.9049C413.723 61.4982 412.249 61.1931 410.774 60.9897C409.3 60.7863 407.672 60.6846 405.893 60.6846C400.604 60.6846 395.952 62.8456 391.935 67.1678C387.968 71.49 384.943 76.9817 382.858 83.6429V106.83H398.876V123H348.077ZM402.918 75.863V52.2182L406.503 41.9976H422.52L418.02 75.863H402.918ZM581.813 7.29313C587.711 7.29313 592.923 7.7762 597.449 8.74233C601.974 9.65761 606.017 10.878 609.576 12.4035L602.94 28.1158C600.144 27.048 597.271 26.2852 594.322 25.8276C591.372 25.3191 588.449 25.0649 585.55 25.0649C580.77 25.0649 577.338 25.9293 575.253 27.6582C573.219 29.387 572.202 32.26 572.202 36.2771V47.1079H598.593L595.923 63.8118H572.202V123H548.252V63.8118H531.243V47.1079H548.252V35.3618C548.252 30.0226 549.524 25.2428 552.066 21.0224C554.608 16.8019 558.371 13.4713 563.355 11.0305C568.338 8.53893 574.49 7.29313 581.813 7.29313Z" fill="#8216FD"/>
<path d="M488.285 41.9976V106.525H508.879V123H441.224V106.525H464.182V58.4726H441.987V41.9976H488.285ZM473.717 -0.410486C477.886 -0.410486 481.293 0.886163 483.937 3.47946C486.581 6.07276 487.903 9.30167 487.903 13.1662C487.903 17.0307 486.581 20.285 483.937 22.9292C481.293 25.5225 477.886 26.8191 473.717 26.8191C469.496 26.8191 466.038 25.5225 463.343 22.9292C460.699 20.285 459.377 17.0307 459.377 13.1662C459.377 9.30167 460.699 6.07276 463.343 3.47946C466.038 0.886163 469.496 -0.410486 473.717 -0.410486Z" fill="#C921AA"/>
<path d="M179.781 156.423V158.269H175.716V172.868H179.781V174.715H169.313V172.868H173.378V158.269H169.313V156.423H179.781ZM185.177 174.715V160.727H187.077L187.249 162.666C187.816 161.949 188.524 161.4 189.375 161.019C190.234 160.63 191.066 160.435 191.872 160.435C193.245 160.435 194.241 160.798 194.861 161.524C195.49 162.25 195.804 163.26 195.804 164.553V174.715H193.572V166.2C193.572 165.243 193.519 164.473 193.413 163.889C193.307 163.295 193.085 162.866 192.749 162.6C192.412 162.325 191.89 162.188 191.181 162.188C190.632 162.188 190.114 162.308 189.627 162.547C189.149 162.786 188.719 163.087 188.339 163.45C187.967 163.804 187.657 164.163 187.409 164.526V174.715H185.177ZM212.213 174.011C211.734 174.33 211.154 174.578 210.472 174.755C209.79 174.932 209.122 175.02 208.466 175.02C206.961 175.02 205.801 174.626 204.986 173.838C204.171 173.05 203.764 172.036 203.764 170.796V162.454H200.549V160.727H203.764V157.552L205.996 157.286V160.727H210.831L210.565 162.454H205.996V170.77C205.996 171.549 206.199 172.142 206.607 172.55C207.023 172.957 207.709 173.161 208.666 173.161C209.188 173.161 209.671 173.099 210.114 172.975C210.556 172.851 210.968 172.691 211.349 172.496L212.213 174.011ZM218.791 168.511C218.835 169.592 219.043 170.477 219.415 171.168C219.787 171.85 220.279 172.355 220.89 172.682C221.501 173.001 222.165 173.161 222.882 173.161C223.6 173.161 224.246 173.054 224.822 172.842C225.406 172.629 226.004 172.315 226.615 171.899L227.665 173.373C227.009 173.887 226.261 174.29 225.42 174.582C224.587 174.874 223.733 175.02 222.856 175.02C221.501 175.02 220.345 174.715 219.389 174.104C218.432 173.493 217.702 172.643 217.197 171.553C216.701 170.455 216.453 169.184 216.453 167.741C216.453 166.324 216.705 165.066 217.21 163.968C217.715 162.87 218.423 162.007 219.336 161.378C220.248 160.749 221.324 160.435 222.564 160.435C223.741 160.435 224.755 160.714 225.606 161.272C226.456 161.821 227.107 162.609 227.558 163.636C228.019 164.655 228.249 165.872 228.249 167.289C228.249 167.528 228.245 167.754 228.236 167.967C228.227 168.17 228.214 168.352 228.196 168.511H218.791ZM222.59 162.268C221.554 162.268 220.686 162.635 219.986 163.37C219.296 164.106 218.902 165.243 218.804 166.784H226.097C226.07 165.288 225.743 164.163 225.114 163.41C224.485 162.649 223.644 162.268 222.59 162.268ZM238.414 155.095V171.261C238.414 171.952 238.627 172.443 239.052 172.736C239.486 173.019 240.044 173.161 240.725 173.161C241.151 173.161 241.553 173.116 241.934 173.028C242.315 172.939 242.696 172.82 243.077 172.669L243.674 174.303C243.294 174.489 242.82 174.653 242.253 174.795C241.695 174.945 241.062 175.02 240.354 175.02C239.114 175.02 238.109 174.679 237.338 173.998C236.568 173.307 236.182 172.355 236.182 171.142V156.861H231.892V155.095H238.414ZM254.344 155.095V171.261C254.344 171.952 254.557 172.443 254.982 172.736C255.416 173.019 255.974 173.161 256.656 173.161C257.081 173.161 257.484 173.116 257.865 173.028C258.245 172.939 258.626 172.82 259.007 172.669L259.605 174.303C259.224 174.489 258.75 174.653 258.183 174.795C257.625 174.945 256.992 175.02 256.284 175.02C255.044 175.02 254.039 174.679 253.268 173.998C252.498 173.307 252.113 172.355 252.113 171.142V156.861H247.822V155.095H254.344ZM271.908 160.727V172.948H275.854V174.715H265.36V172.948H269.677V162.494H265.492V160.727H271.908ZM270.128 154.178C270.624 154.178 271.018 154.329 271.311 154.63C271.612 154.931 271.762 155.298 271.762 155.732C271.762 156.184 271.612 156.565 271.311 156.875C271.018 157.176 270.624 157.326 270.128 157.326C269.659 157.326 269.274 157.176 268.973 156.875C268.672 156.565 268.521 156.184 268.521 155.732C268.521 155.298 268.672 154.931 268.973 154.63C269.274 154.329 269.659 154.178 270.128 154.178ZM292.129 159.239L292.82 161.338C292.227 161.524 291.594 161.639 290.921 161.683C290.248 161.728 289.517 161.75 288.729 161.75C289.535 162.122 290.141 162.604 290.549 163.198C290.956 163.782 291.16 164.473 291.16 165.27C291.16 166.191 290.952 167.01 290.535 167.728C290.119 168.445 289.517 169.007 288.729 169.415C287.949 169.822 287.006 170.026 285.899 170.026C285.43 170.026 285.036 170.004 284.717 169.959C284.407 169.915 284.106 169.849 283.814 169.76C283.601 169.902 283.424 170.097 283.282 170.344C283.15 170.592 283.083 170.849 283.083 171.115C283.083 171.451 283.216 171.73 283.482 171.952C283.747 172.173 284.239 172.284 284.956 172.284H287.48C288.419 172.284 289.26 172.452 290.004 172.789C290.757 173.125 291.346 173.577 291.771 174.144C292.205 174.71 292.422 175.357 292.422 176.083C292.422 177.456 291.837 178.51 290.668 179.245C289.508 179.98 287.865 180.347 285.74 180.347C284.252 180.347 283.079 180.192 282.22 179.882C281.361 179.581 280.745 179.116 280.373 178.487C280.01 177.868 279.829 177.084 279.829 176.136H281.848C281.848 176.676 281.954 177.124 282.167 177.478C282.379 177.832 282.764 178.093 283.322 178.262C283.88 178.439 284.682 178.527 285.727 178.527C286.754 178.527 287.591 178.439 288.237 178.262C288.893 178.093 289.375 177.837 289.685 177.491C290.004 177.155 290.163 176.734 290.163 176.229C290.163 175.565 289.862 175.065 289.26 174.728C288.658 174.392 287.905 174.223 287.002 174.223H284.504C283.3 174.223 282.41 173.958 281.834 173.426C281.268 172.895 280.984 172.284 280.984 171.593C280.984 171.142 281.113 170.703 281.369 170.278C281.635 169.853 282.02 169.477 282.525 169.149C281.719 168.724 281.126 168.197 280.745 167.568C280.364 166.939 280.174 166.178 280.174 165.283C280.174 164.336 280.409 163.499 280.878 162.773C281.347 162.038 282.003 161.462 282.844 161.046C283.685 160.63 284.655 160.421 285.753 160.421C286.931 160.413 287.887 160.364 288.622 160.275C289.357 160.178 289.986 160.041 290.509 159.864C291.04 159.686 291.58 159.478 292.129 159.239ZM285.753 162.055C284.628 162.055 283.796 162.361 283.256 162.972C282.724 163.574 282.459 164.345 282.459 165.283C282.459 166.231 282.733 167.01 283.282 167.621C283.831 168.232 284.673 168.538 285.806 168.538C286.798 168.538 287.551 168.25 288.065 167.674C288.587 167.099 288.848 166.297 288.848 165.27C288.848 164.216 288.587 163.419 288.065 162.879C287.551 162.33 286.78 162.055 285.753 162.055ZM298.442 168.511C298.486 169.592 298.695 170.477 299.066 171.168C299.438 171.85 299.93 172.355 300.541 172.682C301.152 173.001 301.816 173.161 302.534 173.161C303.251 173.161 303.897 173.054 304.473 172.842C305.057 172.629 305.655 172.315 306.266 171.899L307.316 173.373C306.66 173.887 305.912 174.29 305.071 174.582C304.238 174.874 303.384 175.02 302.507 175.02C301.152 175.02 299.996 174.715 299.04 174.104C298.083 173.493 297.353 172.643 296.848 171.553C296.352 170.455 296.104 169.184 296.104 167.741C296.104 166.324 296.357 165.066 296.861 163.968C297.366 162.87 298.075 162.007 298.987 161.378C299.899 160.749 300.975 160.435 302.215 160.435C303.393 160.435 304.407 160.714 305.257 161.272C306.107 161.821 306.758 162.609 307.209 163.636C307.67 164.655 307.9 165.872 307.9 167.289C307.9 167.528 307.896 167.754 307.887 167.967C307.878 168.17 307.865 168.352 307.847 168.511H298.442ZM302.241 162.268C301.205 162.268 300.337 162.635 299.638 163.37C298.947 164.106 298.553 165.243 298.455 166.784H305.748C305.722 165.288 305.394 164.163 304.765 163.41C304.136 162.649 303.295 162.268 302.241 162.268ZM312.619 174.715V160.727H314.518L314.691 162.666C315.258 161.949 315.966 161.4 316.817 161.019C317.676 160.63 318.508 160.435 319.314 160.435C320.687 160.435 321.683 160.798 322.303 161.524C322.932 162.25 323.246 163.26 323.246 164.553V174.715H321.014V166.2C321.014 165.243 320.961 164.473 320.855 163.889C320.749 163.295 320.527 162.866 320.191 162.6C319.854 162.325 319.332 162.188 318.623 162.188C318.074 162.188 317.556 162.308 317.069 162.547C316.591 162.786 316.161 163.087 315.78 163.45C315.409 163.804 315.099 164.163 314.851 164.526V174.715H312.619ZM334.872 173.094C335.572 173.094 336.223 172.979 336.825 172.749C337.436 172.519 337.998 172.226 338.512 171.872L339.601 173.333C338.99 173.856 338.255 174.268 337.396 174.569C336.537 174.87 335.696 175.02 334.872 175.02C333.482 175.02 332.295 174.724 331.312 174.13C330.338 173.528 329.594 172.687 329.08 171.606C328.567 170.517 328.31 169.242 328.31 167.781C328.31 166.381 328.567 165.128 329.08 164.021C329.603 162.906 330.351 162.029 331.325 161.391C332.308 160.754 333.5 160.435 334.899 160.435C335.793 160.435 336.63 160.572 337.409 160.847C338.198 161.112 338.919 161.515 339.575 162.055L338.485 163.543C337.892 163.127 337.294 162.817 336.692 162.613C336.099 162.401 335.492 162.294 334.872 162.294C333.668 162.294 332.676 162.746 331.897 163.649C331.117 164.553 330.728 165.93 330.728 167.781C330.728 169.021 330.905 170.035 331.259 170.823C331.622 171.602 332.114 172.178 332.734 172.55C333.362 172.913 334.075 173.094 334.872 173.094ZM346.233 168.511C346.277 169.592 346.485 170.477 346.857 171.168C347.229 171.85 347.721 172.355 348.332 172.682C348.943 173.001 349.607 173.161 350.324 173.161C351.042 173.161 351.688 173.054 352.264 172.842C352.848 172.629 353.446 172.315 354.057 171.899L355.106 173.373C354.451 173.887 353.703 174.29 352.862 174.582C352.029 174.874 351.174 175.02 350.298 175.02C348.943 175.02 347.787 174.715 346.831 174.104C345.874 173.493 345.144 172.643 344.639 171.553C344.143 170.455 343.895 169.184 343.895 167.741C343.895 166.324 344.147 165.066 344.652 163.968C345.157 162.87 345.865 162.007 346.778 161.378C347.69 160.749 348.766 160.435 350.005 160.435C351.183 160.435 352.197 160.714 353.047 161.272C353.898 161.821 354.549 162.609 355 163.636C355.461 164.655 355.691 165.872 355.691 167.289C355.691 167.528 355.687 167.754 355.678 167.967C355.669 168.17 355.656 168.352 355.638 168.511H346.233ZM350.032 162.268C348.996 162.268 348.128 162.635 347.428 163.37C346.738 164.106 346.344 165.243 346.246 166.784H353.539C353.512 165.288 353.185 164.163 352.556 163.41C351.927 162.649 351.086 162.268 350.032 162.268ZM363.359 172.669C363.359 172.235 363.46 171.846 363.664 171.5C363.868 171.146 364.142 170.867 364.488 170.663C364.842 170.451 365.241 170.344 365.683 170.344C366.135 170.344 366.538 170.451 366.892 170.663C367.246 170.867 367.525 171.146 367.729 171.5C367.933 171.846 368.035 172.235 368.035 172.669C368.035 173.103 367.933 173.502 367.729 173.865C367.525 174.219 367.246 174.502 366.892 174.715C366.538 174.919 366.135 175.02 365.683 175.02C365.241 175.02 364.842 174.919 364.488 174.715C364.142 174.502 363.868 174.219 363.664 173.865C363.46 173.502 363.359 173.103 363.359 172.669ZM403.854 169.654C403.854 170.699 403.592 171.629 403.07 172.443C402.547 173.249 401.79 173.882 400.798 174.343C399.806 174.795 398.598 175.02 397.172 175.02C395.835 175.02 394.621 174.817 393.532 174.409C392.452 174.002 391.526 173.426 390.756 172.682L392.124 171.142C392.762 171.735 393.492 172.209 394.316 172.563C395.139 172.908 396.105 173.081 397.212 173.081C397.956 173.081 398.651 172.961 399.297 172.722C399.944 172.474 400.466 172.102 400.865 171.606C401.263 171.102 401.463 170.464 401.463 169.694C401.463 169.1 401.347 168.595 401.117 168.179C400.887 167.763 400.48 167.395 399.895 167.077C399.311 166.749 398.496 166.43 397.451 166.12C396.246 165.766 395.201 165.367 394.316 164.925C393.439 164.473 392.757 163.92 392.27 163.264C391.792 162.609 391.553 161.799 391.553 160.833C391.553 159.921 391.805 159.111 392.31 158.402C392.815 157.694 393.51 157.14 394.396 156.742C395.29 156.334 396.317 156.131 397.477 156.131C398.744 156.131 399.842 156.312 400.772 156.675C401.711 157.03 402.561 157.543 403.322 158.216L401.967 159.717C401.312 159.133 400.608 158.712 399.855 158.455C399.102 158.19 398.336 158.057 397.557 158.057C396.893 158.057 396.282 158.159 395.724 158.362C395.175 158.557 394.732 158.854 394.396 159.252C394.068 159.642 393.904 160.142 393.904 160.754C393.904 161.276 394.046 161.728 394.329 162.108C394.613 162.489 395.091 162.839 395.764 163.158C396.437 163.468 397.353 163.796 398.514 164.141C399.461 164.415 400.338 164.761 401.144 165.177C401.958 165.584 402.614 166.142 403.11 166.851C403.606 167.55 403.854 168.485 403.854 169.654ZM415.281 160.727V172.948H419.226V174.715H408.732V172.948H413.049V162.494H408.865V160.727H415.281ZM413.501 154.178C413.997 154.178 414.391 154.329 414.683 154.63C414.984 154.931 415.135 155.298 415.135 155.732C415.135 156.184 414.984 156.565 414.683 156.875C414.391 157.176 413.997 157.326 413.501 157.326C413.031 157.326 412.646 157.176 412.345 156.875C412.044 156.565 411.893 156.184 411.893 155.732C411.893 155.298 412.044 154.931 412.345 154.63C412.646 154.329 413.031 154.178 413.501 154.178ZM433.35 160.435C433.801 160.435 434.231 160.532 434.638 160.727C435.054 160.922 435.395 161.298 435.661 161.856C435.927 162.414 436.06 163.229 436.06 164.3V174.715H433.987V164.659C433.987 163.782 433.934 163.149 433.828 162.759C433.722 162.37 433.416 162.175 432.911 162.175C432.495 162.175 432.079 162.308 431.663 162.573C431.255 162.83 430.857 163.255 430.467 163.849V174.715H428.381V164.659C428.381 163.782 428.328 163.149 428.222 162.759C428.116 162.37 427.81 162.175 427.305 162.175C426.872 162.175 426.451 162.308 426.043 162.573C425.645 162.83 425.251 163.255 424.861 163.849V174.715H422.802V160.727H424.556L424.689 162.348C425.069 161.807 425.494 161.356 425.964 160.993C426.442 160.621 427.031 160.435 427.731 160.435C428.262 160.435 428.762 160.563 429.232 160.82C429.701 161.068 430.046 161.555 430.268 162.281C430.649 161.732 431.078 161.289 431.556 160.953C432.035 160.607 432.632 160.435 433.35 160.435ZM446.318 160.435C447.557 160.435 448.545 160.736 449.28 161.338C450.024 161.94 450.56 162.79 450.887 163.889C451.215 164.978 451.379 166.253 451.379 167.714C451.379 169.122 451.179 170.38 450.781 171.487C450.391 172.585 449.798 173.448 449.001 174.077C448.204 174.706 447.199 175.02 445.985 175.02C444.453 175.02 443.222 174.48 442.293 173.4V180.068L440.061 180.347V160.727H441.96L442.146 162.68C442.66 161.962 443.271 161.409 443.98 161.019C444.697 160.63 445.476 160.435 446.318 160.435ZM445.786 162.228C445.016 162.228 444.334 162.463 443.74 162.932C443.156 163.393 442.673 163.906 442.293 164.473V171.407C442.656 171.947 443.112 172.377 443.661 172.696C444.219 173.006 444.83 173.161 445.494 173.161C446.654 173.161 447.526 172.718 448.111 171.832C448.695 170.947 448.988 169.57 448.988 167.701C448.988 166.479 448.872 165.465 448.642 164.659C448.412 163.844 448.062 163.238 447.593 162.839C447.123 162.432 446.521 162.228 445.786 162.228ZM461.437 155.095V171.261C461.437 171.952 461.65 172.443 462.075 172.736C462.509 173.019 463.067 173.161 463.749 173.161C464.174 173.161 464.577 173.116 464.958 173.028C465.339 172.939 465.719 172.82 466.1 172.669L466.698 174.303C466.317 174.489 465.843 174.653 465.277 174.795C464.719 174.945 464.085 175.02 463.377 175.02C462.137 175.02 461.132 174.679 460.361 173.998C459.591 173.307 459.206 172.355 459.206 171.142V156.861H454.915V155.095H461.437ZM479.002 160.727V172.948H482.947V174.715H472.453V172.948H476.77V162.494H472.586V160.727H479.002ZM477.222 154.178C477.718 154.178 478.112 154.329 478.404 154.63C478.705 154.931 478.856 155.298 478.856 155.732C478.856 156.184 478.705 156.565 478.404 156.875C478.112 157.176 477.718 157.326 477.222 157.326C476.752 157.326 476.367 157.176 476.066 156.875C475.765 156.565 475.614 156.184 475.614 155.732C475.614 155.298 475.765 154.931 476.066 154.63C476.367 154.329 476.752 154.178 477.222 154.178ZM496.114 154.816C496.867 154.816 497.549 154.882 498.16 155.015C498.771 155.148 499.351 155.334 499.9 155.573L499.183 157.233C498.731 157.038 498.253 156.892 497.748 156.795C497.243 156.698 496.721 156.649 496.181 156.649C495.206 156.649 494.471 156.839 493.975 157.22C493.488 157.601 493.245 158.185 493.245 158.974V161.816H497.987L497.748 163.57H493.245V174.715H491.013V163.57H487.679V161.816H491.013V159.027C491.013 158.159 491.235 157.41 491.677 156.782C492.129 156.153 492.74 155.67 493.51 155.334C494.281 154.988 495.149 154.816 496.114 154.816ZM510.862 161.816V172.948H514.807V174.715H504.313V172.948H508.63V163.57H504.446V161.816H510.862ZM509.082 155.148C509.578 155.148 509.972 155.298 510.264 155.599C510.565 155.901 510.716 156.268 510.716 156.702C510.716 157.154 510.565 157.534 510.264 157.844C509.972 158.145 509.578 158.296 509.082 158.296C508.613 158.296 508.228 158.145 507.926 157.844C507.625 157.534 507.475 157.154 507.475 156.702C507.475 156.268 507.625 155.901 507.926 155.599C508.228 155.298 508.613 155.148 509.082 155.148ZM521.466 168.511C521.51 169.592 521.718 170.477 522.09 171.168C522.462 171.85 522.953 172.355 523.564 172.682C524.175 173.001 524.84 173.161 525.557 173.161C526.274 173.161 526.921 173.054 527.496 172.842C528.081 172.629 528.679 172.315 529.29 171.899L530.339 173.373C529.684 173.887 528.935 174.29 528.094 174.582C527.262 174.874 526.407 175.02 525.53 175.02C524.175 175.02 523.02 174.715 522.063 174.104C521.107 173.493 520.376 172.643 519.871 171.553C519.376 170.455 519.128 169.184 519.128 167.741C519.128 166.324 519.38 165.066 519.885 163.968C520.39 162.87 521.098 162.007 522.01 161.378C522.922 160.749 523.998 160.435 525.238 160.435C526.416 160.435 527.43 160.714 528.28 161.272C529.13 161.821 529.781 162.609 530.233 163.636C530.693 164.655 530.924 165.872 530.924 167.289C530.924 167.528 530.919 167.754 530.91 167.967C530.902 168.17 530.888 168.352 530.871 168.511H521.466ZM525.265 162.268C524.229 162.268 523.361 162.635 522.661 163.37C521.97 164.106 521.576 165.243 521.479 166.784H528.772C528.745 165.288 528.417 164.163 527.789 163.41C527.16 162.649 526.319 162.268 525.265 162.268ZM544.011 154.816L546.243 155.095V174.715H544.29L544.078 172.868C543.555 173.612 542.953 174.157 542.271 174.502C541.598 174.848 540.876 175.02 540.106 175.02C538.892 175.02 537.892 174.715 537.104 174.104C536.315 173.493 535.731 172.643 535.35 171.553C534.969 170.455 534.779 169.184 534.779 167.741C534.779 166.342 534.996 165.093 535.43 163.995C535.864 162.888 536.488 162.02 537.303 161.391C538.126 160.754 539.114 160.435 540.265 160.435C541.071 160.435 541.779 160.576 542.391 160.86C543.002 161.134 543.542 161.542 544.011 162.082V154.816ZM540.85 162.228C539.681 162.228 538.782 162.684 538.153 163.596C537.524 164.508 537.21 165.89 537.21 167.741C537.21 168.945 537.338 169.955 537.595 170.77C537.852 171.584 538.228 172.195 538.724 172.603C539.229 173.01 539.844 173.214 540.571 173.214C541.368 173.214 542.045 172.988 542.603 172.536C543.17 172.085 543.639 171.575 544.011 171.009V164.021C543.63 163.455 543.17 163.016 542.63 162.706C542.089 162.387 541.496 162.228 540.85 162.228ZM554.522 172.669C554.522 172.235 554.623 171.846 554.827 171.5C555.031 171.146 555.305 170.867 555.651 170.663C556.005 170.451 556.403 170.344 556.846 170.344C557.298 170.344 557.701 170.451 558.055 170.663C558.409 170.867 558.688 171.146 558.892 171.5C559.096 171.846 559.197 172.235 559.197 172.669C559.197 173.103 559.096 173.502 558.892 173.865C558.688 174.219 558.409 174.502 558.055 174.715C557.701 174.919 557.298 175.02 556.846 175.02C556.403 175.02 556.005 174.919 555.651 174.715C555.305 174.502 555.031 174.219 554.827 173.865C554.623 173.502 554.522 173.103 554.522 172.669Z" fill="#560591"/>
<path d="M79.5717 18.6098H42.9187C19.696 18.6098 1 37.3064 1 60.5293V130.929C1 154.152 19.696 172.848 42.9187 172.848H84.6544L72.9105 158.167H45.4125C27.2697 158.167 12.6641 143.561 12.6641 125.418V65.5225C12.6641 47.3796 27.2697 32.7733 45.4125 32.7733H65.4081L79.5717 18.6098Z" fill="url(#paint0_linear_2_3)"/>
<path d="M77.5758 40.6931L69.0784 54.8566H83.2468C92.142 54.8566 99.3029 62.0174 99.3029 70.9127V122.431C99.3029 130.243 93.7773 136.709 86.4069 138.17L88.8527 150.397C102.739 146.601 112.902 133.969 112.902 118.845V111.511L121.233 94.8479L112.902 82.3506V73.4422C112.902 55.2993 98.2962 40.6931 80.1534 40.6931H77.5758Z" fill="url(#paint1_linear_2_3)"/>
<path d="M62.9127 25.7419H41.7252C22.1149 25.7419 6.30322 41.5536 6.30322 61.1639V104.013H7.87756V61.1639C7.87756 42.3986 22.9599 27.3163 41.7252 27.3163H62.9127V25.7419Z" fill="#560591"/>
<path d="M84.2542 26.5296H94.9298C114.118 26.5296 129.565 41.9768 129.565 61.1646V128.984C129.565 148.172 114.118 163.619 94.9298 163.619H91.2847" stroke="#560591" stroke-width="1.57446"/>
<path d="M62.9127 29.6785C64.6518 29.6785 66.0616 28.2687 66.0616 26.5296C66.0616 24.7905 64.6518 23.3806 62.9127 23.3806C61.1736 23.3806 59.7638 24.7905 59.7638 26.5296C59.7638 28.2687 61.1736 29.6785 62.9127 29.6785Z" fill="#1E046C" stroke="#1E046C" stroke-width="0.78723"/>
<path d="M6.81683 108.915C8.55593 108.915 9.96574 107.505 9.96574 105.766C9.96574 104.027 8.55593 102.617 6.81683 102.617C5.07773 102.617 3.66791 104.027 3.66791 105.766C3.66791 107.505 5.07773 108.915 6.81683 108.915Z" fill="#1E046C" stroke="#1E046C" stroke-width="0.78723"/>
<path d="M82.0751 29.6785C83.8142 29.6785 85.224 28.2687 85.224 26.5296C85.224 24.7905 83.8142 23.3806 82.0751 23.3806C80.336 23.3806 78.9262 24.7905 78.9262 26.5296C78.9262 28.2687 80.336 29.6785 82.0751 29.6785Z" fill="#7E00FF" stroke="#A562EA" stroke-width="0.78723"/>
<path d="M88.7403 166.314C90.4794 166.314 91.8892 164.904 91.8892 163.165C91.8892 161.426 90.4794 160.016 88.7403 160.016C87.0012 160.016 85.5914 161.426 85.5914 163.165C85.5914 164.904 87.0012 166.314 88.7403 166.314Z" fill="#7E00FF" stroke="#A562EA" stroke-width="0.78723"/>
<path d="M58.1693 40.6922C40.0264 40.6922 25.4209 55.2985 25.4209 73.4414V82.3506L17.0894 94.8479L25.4209 111.511V118.845C25.4209 136.988 40.0264 151.593 58.1693 151.593H61.7777C61.2371 151.2 60.6755 150.822 60.1846 150.392C59.3868 149.694 58.6612 148.943 58.0285 148.123C57.3959 147.304 56.8561 146.415 56.4306 145.443C56.2178 144.957 56.0337 144.45 55.8806 143.92C55.7275 143.39 55.6059 142.837 55.5177 142.259C55.4295 141.682 55.3747 141.079 55.3566 140.449C55.3387 139.823 55.3579 139.169 55.4144 138.487H53.9743C45.079 138.487 37.9182 131.326 37.9182 122.431V70.9127C37.9182 62.0175 45.079 54.8558 53.9743 54.8558H69.0784L77.5759 40.6922H58.1693Z" fill="url(#paint2_linear_2_3)"/>
<path d="M66.618 46.5723H56.8024C42.6873 46.5723 31.2977 57.9595 31.2977 72.0746V120.676H32.8721V72.0746C32.8721 58.8045 43.5323 48.1467 56.8024 48.1467H66.539L66.618 46.5723Z" fill="#C921AA"/>
<path d="M66.2453 51.3404C67.9844 51.3404 69.3942 49.9306 69.3942 48.1915C69.3942 46.4524 67.9844 45.0426 66.2453 45.0426C64.5062 45.0426 63.0964 46.4524 63.0964 48.1915C63.0964 49.9306 64.5062 51.3404 66.2453 51.3404Z" fill="#C921AA" stroke="#C921AA" stroke-width="0.78723"/>
<path d="M32.0861 122.991C33.8252 122.991 35.235 121.581 35.235 119.842C35.235 118.103 33.8252 116.693 32.0861 116.693C30.347 116.693 28.9371 118.103 28.9371 119.842C28.9371 121.581 30.347 122.991 32.0861 122.991Z" fill="#C921AA" stroke="#C921AA" stroke-width="0.78723"/>
<path d="M105.83 75.1061L104.255 76.0906V121.12C104.255 128.006 101.369 134.172 96.753 138.526L97.6284 139.84C102.664 135.185 105.83 128.54 105.83 121.12V75.1061Z" fill="#C921AA"/>
<path d="M104.57 78.0009C106.309 78.0009 107.719 76.5911 107.719 74.852C107.719 73.1129 106.309 71.7031 104.57 71.7031C102.831 71.7031 101.421 73.1129 101.421 74.852C101.421 76.5911 102.831 78.0009 104.57 78.0009Z" fill="#C921AA" stroke="#C921AA" stroke-width="0.78723"/>
<path d="M94.5725 143.819C96.3116 143.819 97.7214 142.409 97.7214 140.67C97.7214 138.931 96.3116 137.521 94.5725 137.521C92.8334 137.521 91.4236 138.931 91.4236 140.67C91.4236 142.409 92.8334 143.819 94.5725 143.819Z" fill="#C921AA" stroke="#C921AA" stroke-width="0.78723"/>
<path d="M53.3534 89.3422L74.9037 89.727C74.9037 89.727 74.7252 125.364 75.2886 137.831C75.4022 140.348 82.6003 139.755 82.6003 139.755V150.915C82.6003 150.915 73.4571 152.105 68.3617 151.3C68.3617 151.3 61.1696 148.014 61.0499 142.449C60.8143 131.49 61.3572 114.906 61.0499 103.196C60.9822 100.615 57.2999 97.4315 54.123 99.7326C51.3104 101.77 53.3534 89.3422 53.3534 89.3422Z" fill="#C921AA"/>
<path d="M63.7459 84.2991C68.9632 84.2991 73.1926 80.0696 73.1926 74.8523C73.1926 69.635 68.9632 65.4055 63.7459 65.4055C58.5286 65.4055 54.2991 69.635 54.2991 74.8523C54.2991 80.0696 58.5286 84.2991 63.7459 84.2991Z" fill="#C921AA"/>
</g>
</g>
<defs>
<filter id="filter0_d_2_3" x="-3" y="-0.410492" width="616.576" height="188.758" filterUnits="userSpaceOnUse" color-interpolation-filters="sRGB">
<feFlood flood-opacity="0" result="BackgroundImageFix"/>
<feColorMatrix in="SourceAlpha" type="matrix" values="0 0 0 0 0 0 0 0 0 0 0 0 0 0 0 0 0 0 127 0" result="hardAlpha"/>
<feOffset dy="4"/>
<feGaussianBlur stdDeviation="2"/>
<feComposite in2="hardAlpha" operator="out"/>
<feColorMatrix type="matrix" values="0 0 0 0 0 0 0 0 0 0 0 0 0 0 0 0 0 0 0.25 0"/>
<feBlend mode="normal" in2="BackgroundImageFix" result="effect1_dropShadow_2_3"/>
<feBlend mode="normal" in="SourceGraphic" in2="effect1_dropShadow_2_3" result="shape"/>
</filter>
<linearGradient id="paint0_linear_2_3" x1="44.6327" y1="66.0479" x2="50.721" y2="198.468" gradientUnits="userSpaceOnUse">
<stop stop-color="#C370FF"/>
<stop offset="0.795222" stop-color="#8216FD"/>
<stop offset="1" stop-color="#8121C9"/>
</linearGradient>
<linearGradient id="paint1_linear_2_3" x1="79.5757" y1="61.5218" x2="130.277" y2="164.711" gradientUnits="userSpaceOnUse">
<stop stop-color="#A562EA"/>
<stop offset="0.73128" stop-color="#560591"/>
<stop offset="1" stop-color="#560591"/>
</linearGradient>
<linearGradient id="paint2_linear_2_3" x1="71.2442" y1="74.8516" x2="101.117" y2="148.048" gradientUnits="userSpaceOnUse">
<stop stop-color="#560591"/>
<stop offset="1" stop-color="#C370FF"/>
</linearGradient>
<clipPath id="clip0_2_3">
<rect width="611" height="184" fill="white"/>
</clipPath>
</defs>
</svg>
