<svg width="458" height="212" viewBox="0 0 458 212" fill="none" xmlns="http://www.w3.org/2000/svg">
<path d="M41.569 63.133V91.1253H78.638V109.05H41.569V151H16.4751V45.285H85.9602L83.3669 63.133H41.569ZM137.233 67.328C145.572 67.328 152.665 69.1077 158.513 72.6671C164.361 76.2266 168.835 81.2352 171.937 87.693C175.039 94.1 176.59 101.626 176.59 110.27C176.59 119.27 175.013 127.025 171.861 133.533C168.759 139.991 164.284 144.949 158.437 148.407C152.589 151.864 145.521 153.593 137.233 153.593C128.995 153.593 121.927 151.89 116.029 148.483C110.181 145.076 105.681 140.144 102.528 133.686C99.4264 127.228 97.8756 119.474 97.8756 110.423C97.8756 101.829 99.4264 94.3034 102.528 87.8456C105.681 81.3877 110.181 76.3537 116.029 72.7434C121.927 69.1331 128.995 67.328 137.233 67.328ZM137.233 85.0997C132.3 85.0997 128.639 87.1337 126.249 91.2016C123.91 95.2187 122.741 101.626 122.741 110.423C122.741 119.372 123.91 125.855 126.249 129.872C128.639 133.889 132.3 135.898 137.233 135.898C142.165 135.898 145.801 133.889 148.14 129.872C150.53 125.855 151.725 119.321 151.725 110.27C151.725 101.524 150.53 95.1424 148.14 91.1253C145.801 87.1083 142.165 85.0997 137.233 85.0997ZM194.378 151V134.83H205.056V86.015H194.378V69.9976H223.438L227.862 88.2269C230.761 81.2606 234.447 76.074 238.922 72.6671C243.447 69.2603 248.965 67.5568 255.473 67.5568C258.219 67.5568 260.66 67.7856 262.795 68.2433C264.931 68.6501 266.94 69.2348 268.821 69.9976L261.499 89.9049C260.024 89.4982 258.55 89.1931 257.075 88.9897C255.6 88.7863 253.973 88.6846 252.193 88.6846C246.905 88.6846 242.253 90.8456 238.235 95.1678C234.269 99.49 231.244 104.982 229.159 111.643V134.83H245.176V151H194.378ZM249.219 103.863V80.2182L252.804 69.9976H268.821L264.321 103.863H249.219ZM428.113 35.2931C434.012 35.2931 439.224 35.7762 443.75 36.7423C448.275 37.6576 452.318 38.878 455.877 40.4035L449.241 56.1158C446.445 55.048 443.572 54.2852 440.622 53.8276C437.673 53.3191 434.749 53.0649 431.851 53.0649C427.071 53.0649 423.639 53.9293 421.554 55.6582C419.52 57.387 418.503 60.26 418.503 64.2771V75.1079H444.894L442.224 91.8118H418.503V151H394.553V91.8118H377.544V75.1079H394.553V63.3618C394.553 58.0226 395.824 53.2428 398.367 49.0224C400.909 44.8019 404.672 41.4713 409.655 39.0305C414.639 36.5389 420.791 35.2931 428.113 35.2931Z" fill="#8216FD"/>
<path d="M334.586 69.9976V134.525H355.179V151H287.525V134.525H310.483V86.4726H288.288V69.9976H334.586ZM320.017 27.5895C324.187 27.5895 327.594 28.8862 330.238 31.4795C332.882 34.0728 334.204 37.3017 334.204 41.1662C334.204 45.0307 332.882 48.285 330.238 50.9292C327.594 53.5225 324.187 54.8191 320.017 54.8191C315.797 54.8191 312.339 53.5225 309.644 50.9292C307 48.285 305.678 45.0307 305.678 41.1662C305.678 37.3017 307 34.0728 309.644 31.4795C312.339 28.8862 315.797 27.5895 320.017 27.5895Z" fill="#C921AA"/>
<path d="M26.0815 184.423V186.269H22.0167V200.868H26.0815V202.715H15.6139V200.868H19.6787V186.269H15.6139V184.423H26.0815ZM31.4777 202.715V188.727H33.3773L33.55 190.666C34.1167 189.949 34.8252 189.4 35.6754 189.019C36.5344 188.63 37.3669 188.435 38.1727 188.435C39.5454 188.435 40.5417 188.798 41.1616 189.524C41.7904 190.25 42.1048 191.26 42.1048 192.553V202.715H39.8731V194.2C39.8731 193.243 39.8199 192.473 39.7137 191.889C39.6074 191.295 39.386 190.866 39.0495 190.6C38.7129 190.325 38.1905 190.188 37.482 190.188C36.9329 190.188 36.4148 190.308 35.9278 190.547C35.4495 190.786 35.02 191.087 34.6392 191.45C34.2673 191.804 33.9573 192.163 33.7094 192.526V202.715H31.4777ZM58.5132 202.011C58.035 202.33 57.4549 202.578 56.773 202.755C56.0911 202.932 55.4225 203.02 54.7672 203.02C53.2617 203.02 52.1015 202.626 51.2868 201.838C50.4721 201.05 50.0647 200.036 50.0647 198.796V190.454H46.85V188.727H50.0647V185.552L52.2964 185.286V188.727H57.1317L56.866 190.454H52.2964V198.77C52.2964 199.549 52.5001 200.142 52.9074 200.55C53.3237 200.957 54.01 201.161 54.9664 201.161C55.4889 201.161 55.9716 201.099 56.4144 200.975C56.8572 200.851 57.269 200.691 57.6498 200.496L58.5132 202.011ZM65.0916 196.511C65.1359 197.592 65.344 198.477 65.716 199.168C66.0879 199.85 66.5794 200.355 67.1905 200.682C67.8015 201.001 68.4657 201.161 69.1831 201.161C69.9004 201.161 70.5469 201.054 71.1225 200.842C71.707 200.629 72.3048 200.315 72.9158 199.899L73.9652 201.373C73.3099 201.887 72.5616 202.29 71.7203 202.582C70.8878 202.874 70.0332 203.02 69.1565 203.02C67.8015 203.02 66.6458 202.715 65.6894 202.104C64.733 201.493 64.0024 200.643 63.4976 199.553C63.0016 198.455 62.7537 197.184 62.7537 195.741C62.7537 194.324 63.0061 193.066 63.5109 191.968C64.0156 190.87 64.7241 190.007 65.6363 189.378C66.5484 188.749 67.6244 188.435 68.8642 188.435C70.0421 188.435 71.0561 188.714 71.9062 189.272C72.7564 189.821 73.4073 190.609 73.859 191.636C74.3195 192.655 74.5497 193.872 74.5497 195.289C74.5497 195.528 74.5453 195.754 74.5365 195.967C74.5276 196.17 74.5143 196.352 74.4966 196.511H65.0916ZM68.8908 190.268C67.8547 190.268 66.9868 190.635 66.2872 191.37C65.5964 192.105 65.2023 193.243 65.1049 194.784H72.3978C72.3712 193.288 72.0435 192.163 71.4147 191.41C70.786 190.649 69.9447 190.268 68.8908 190.268ZM84.7148 183.095V199.261C84.7148 199.952 84.9273 200.443 85.3524 200.736C85.7864 201.019 86.3443 201.161 87.0262 201.161C87.4513 201.161 87.8542 201.116 88.235 201.028C88.6158 200.939 88.9966 200.82 89.3774 200.669L89.9752 202.303C89.5944 202.489 89.1206 202.653 88.5538 202.795C87.9959 202.945 87.3627 203.02 86.6542 203.02C85.4144 203.02 84.4093 202.679 83.6388 201.998C82.8683 201.307 82.4831 200.355 82.4831 199.141V184.861H78.1924V183.095H84.7148ZM100.645 183.095V199.261C100.645 199.952 100.858 200.443 101.283 200.736C101.717 201.019 102.275 201.161 102.956 201.161C103.382 201.161 103.784 201.116 104.165 201.028C104.546 200.939 104.927 200.82 105.308 200.669L105.905 202.303C105.525 202.489 105.051 202.653 104.484 202.795C103.926 202.945 103.293 203.02 102.584 203.02C101.345 203.02 100.34 202.679 99.569 201.998C98.7986 201.307 98.4133 200.355 98.4133 199.141V184.861H94.1227V183.095H100.645ZM118.209 188.727V200.948H122.154V202.715H111.66V200.948H115.978V190.494H111.793V188.727H118.209ZM116.429 182.178C116.925 182.178 117.319 182.329 117.611 182.63C117.913 182.931 118.063 183.298 118.063 183.732C118.063 184.184 117.913 184.565 117.611 184.875C117.319 185.176 116.925 185.326 116.429 185.326C115.96 185.326 115.575 185.176 115.273 184.875C114.972 184.565 114.822 184.184 114.822 183.732C114.822 183.298 114.972 182.931 115.273 182.63C115.575 182.329 115.96 182.178 116.429 182.178ZM138.43 187.239L139.121 189.338C138.528 189.524 137.894 189.639 137.221 189.683C136.548 189.728 135.818 189.75 135.029 189.75C135.835 190.122 136.442 190.604 136.849 191.198C137.257 191.782 137.46 192.473 137.46 193.27C137.46 194.191 137.252 195.01 136.836 195.728C136.42 196.445 135.818 197.007 135.029 197.415C134.25 197.822 133.307 198.026 132.2 198.026C131.731 198.026 131.337 198.004 131.018 197.959C130.708 197.915 130.407 197.849 130.114 197.76C129.902 197.902 129.725 198.096 129.583 198.344C129.45 198.592 129.384 198.849 129.384 199.115C129.384 199.451 129.517 199.73 129.782 199.952C130.048 200.173 130.54 200.284 131.257 200.284H133.781C134.719 200.284 135.561 200.452 136.305 200.789C137.057 201.125 137.646 201.577 138.071 202.144C138.505 202.71 138.722 203.357 138.722 204.083C138.722 205.456 138.138 206.51 136.969 207.245C135.809 207.98 134.166 208.347 132.041 208.347C130.553 208.347 129.379 208.192 128.52 207.882C127.661 207.581 127.046 207.116 126.674 206.487C126.311 205.868 126.129 205.084 126.129 204.136H128.148C128.148 204.676 128.255 205.124 128.467 205.478C128.68 205.832 129.065 206.093 129.623 206.262C130.181 206.439 130.982 206.527 132.027 206.527C133.055 206.527 133.891 206.439 134.538 206.262C135.193 206.093 135.676 205.837 135.986 205.491C136.305 205.155 136.464 204.734 136.464 204.229C136.464 203.565 136.163 203.065 135.561 202.728C134.959 202.392 134.206 202.223 133.303 202.223H130.805C129.601 202.223 128.711 201.958 128.135 201.426C127.568 200.895 127.285 200.284 127.285 199.593C127.285 199.141 127.413 198.703 127.67 198.278C127.936 197.853 128.321 197.477 128.826 197.149C128.02 196.724 127.427 196.197 127.046 195.568C126.665 194.939 126.475 194.178 126.475 193.283C126.475 192.336 126.709 191.499 127.179 190.773C127.648 190.038 128.303 189.462 129.145 189.046C129.986 188.63 130.956 188.421 132.054 188.421C133.232 188.413 134.188 188.364 134.923 188.275C135.658 188.178 136.287 188.041 136.809 187.863C137.341 187.686 137.881 187.478 138.43 187.239ZM132.054 190.055C130.929 190.055 130.097 190.361 129.557 190.972C129.025 191.574 128.759 192.345 128.759 193.283C128.759 194.231 129.034 195.01 129.583 195.621C130.132 196.232 130.973 196.538 132.107 196.538C133.099 196.538 133.852 196.25 134.365 195.674C134.888 195.099 135.149 194.297 135.149 193.27C135.149 192.216 134.888 191.419 134.365 190.879C133.852 190.33 133.081 190.055 132.054 190.055ZM144.743 196.511C144.787 197.592 144.995 198.477 145.367 199.168C145.739 199.85 146.231 200.355 146.842 200.682C147.453 201.001 148.117 201.161 148.834 201.161C149.552 201.161 150.198 201.054 150.774 200.842C151.358 200.629 151.956 200.315 152.567 199.899L153.616 201.373C152.961 201.887 152.213 202.29 151.371 202.582C150.539 202.874 149.684 203.02 148.808 203.02C147.453 203.02 146.297 202.715 145.341 202.104C144.384 201.493 143.654 200.643 143.149 199.553C142.653 198.455 142.405 197.184 142.405 195.741C142.405 194.324 142.657 193.066 143.162 191.968C143.667 190.87 144.375 190.007 145.287 189.378C146.2 188.749 147.276 188.435 148.515 188.435C149.693 188.435 150.707 188.714 151.557 189.272C152.408 189.821 153.059 190.609 153.51 191.636C153.971 192.655 154.201 193.872 154.201 195.289C154.201 195.528 154.197 195.754 154.188 195.967C154.179 196.17 154.166 196.352 154.148 196.511H144.743ZM148.542 190.268C147.506 190.268 146.638 190.635 145.938 191.37C145.248 192.105 144.854 193.243 144.756 194.784H152.049C152.022 193.288 151.695 192.163 151.066 191.41C150.437 190.649 149.596 190.268 148.542 190.268ZM158.92 202.715V188.727H160.819L160.992 190.666C161.559 189.949 162.267 189.4 163.117 189.019C163.976 188.63 164.809 188.435 165.615 188.435C166.987 188.435 167.984 188.798 168.604 189.524C169.232 190.25 169.547 191.26 169.547 192.553V202.715H167.315V194.2C167.315 193.243 167.262 192.473 167.156 191.889C167.049 191.295 166.828 190.866 166.491 190.6C166.155 190.325 165.632 190.188 164.924 190.188C164.375 190.188 163.857 190.308 163.37 190.547C162.891 190.786 162.462 191.087 162.081 191.45C161.709 191.804 161.399 192.163 161.151 192.526V202.715H158.92ZM181.173 201.094C181.873 201.094 182.524 200.979 183.126 200.749C183.737 200.519 184.299 200.226 184.813 199.872L185.902 201.333C185.291 201.856 184.556 202.268 183.697 202.569C182.838 202.87 181.997 203.02 181.173 203.02C179.783 203.02 178.596 202.724 177.613 202.13C176.639 201.528 175.895 200.687 175.381 199.606C174.868 198.517 174.611 197.242 174.611 195.781C174.611 194.381 174.868 193.128 175.381 192.021C175.904 190.905 176.652 190.029 177.626 189.391C178.609 188.754 179.8 188.435 181.2 188.435C182.094 188.435 182.931 188.572 183.71 188.847C184.498 189.112 185.22 189.515 185.875 190.055L184.786 191.543C184.193 191.127 183.595 190.817 182.993 190.613C182.4 190.401 181.793 190.294 181.173 190.294C179.969 190.294 178.977 190.746 178.197 191.649C177.418 192.553 177.028 193.93 177.028 195.781C177.028 197.02 177.206 198.034 177.56 198.823C177.923 199.602 178.414 200.178 179.034 200.55C179.663 200.913 180.376 201.094 181.173 201.094ZM192.534 196.511C192.578 197.592 192.786 198.477 193.158 199.168C193.53 199.85 194.021 200.355 194.632 200.682C195.243 201.001 195.908 201.161 196.625 201.161C197.342 201.161 197.989 201.054 198.564 200.842C199.149 200.629 199.747 200.315 200.358 199.899L201.407 201.373C200.752 201.887 200.004 202.29 199.162 202.582C198.33 202.874 197.475 203.02 196.598 203.02C195.243 203.02 194.088 202.715 193.131 202.104C192.175 201.493 191.444 200.643 190.94 199.553C190.444 198.455 190.196 197.184 190.196 195.741C190.196 194.324 190.448 193.066 190.953 191.968C191.458 190.87 192.166 190.007 193.078 189.378C193.99 188.749 195.066 188.435 196.306 188.435C197.484 188.435 198.498 188.714 199.348 189.272C200.198 189.821 200.849 190.609 201.301 191.636C201.761 192.655 201.992 193.872 201.992 195.289C201.992 195.528 201.987 195.754 201.978 195.967C201.97 196.17 201.956 196.352 201.939 196.511H192.534ZM196.333 190.268C195.297 190.268 194.429 190.635 193.729 191.37C193.038 192.105 192.644 193.243 192.547 194.784H199.84C199.813 193.288 199.485 192.163 198.857 191.41C198.228 190.649 197.387 190.268 196.333 190.268ZM209.659 200.669C209.659 200.235 209.761 199.846 209.965 199.5C210.169 199.146 210.443 198.867 210.788 198.663C211.143 198.451 211.541 198.344 211.984 198.344C212.436 198.344 212.839 198.451 213.193 198.663C213.547 198.867 213.826 199.146 214.03 199.5C214.233 199.846 214.335 200.235 214.335 200.669C214.335 201.103 214.233 201.502 214.03 201.865C213.826 202.219 213.547 202.502 213.193 202.715C212.839 202.919 212.436 203.02 211.984 203.02C211.541 203.02 211.143 202.919 210.788 202.715C210.443 202.502 210.169 202.219 209.965 201.865C209.761 201.502 209.659 201.103 209.659 200.669ZM250.154 197.654C250.154 198.699 249.893 199.629 249.371 200.443C248.848 201.249 248.091 201.882 247.099 202.343C246.107 202.795 244.898 203.02 243.473 203.02C242.135 203.02 240.922 202.817 239.833 202.409C238.752 202.002 237.827 201.426 237.056 200.682L238.425 199.141C239.062 199.735 239.793 200.209 240.617 200.563C241.44 200.908 242.405 201.081 243.512 201.081C244.256 201.081 244.952 200.961 245.598 200.722C246.244 200.474 246.767 200.102 247.165 199.606C247.564 199.102 247.763 198.464 247.763 197.694C247.763 197.1 247.648 196.595 247.418 196.179C247.188 195.763 246.78 195.395 246.196 195.077C245.611 194.749 244.797 194.43 243.752 194.12C242.547 193.766 241.502 193.367 240.617 192.925C239.74 192.473 239.058 191.919 238.571 191.264C238.093 190.609 237.854 189.799 237.854 188.833C237.854 187.921 238.106 187.111 238.611 186.402C239.115 185.694 239.811 185.14 240.696 184.742C241.591 184.334 242.618 184.131 243.778 184.131C245.045 184.131 246.143 184.312 247.073 184.675C248.011 185.03 248.861 185.543 249.623 186.216L248.268 187.717C247.613 187.133 246.909 186.712 246.156 186.455C245.403 186.19 244.637 186.057 243.858 186.057C243.194 186.057 242.583 186.159 242.025 186.362C241.476 186.557 241.033 186.854 240.696 187.252C240.369 187.642 240.205 188.142 240.205 188.754C240.205 189.276 240.346 189.728 240.63 190.108C240.913 190.489 241.391 190.839 242.064 191.158C242.738 191.468 243.654 191.796 244.814 192.141C245.762 192.415 246.639 192.761 247.444 193.177C248.259 193.584 248.915 194.142 249.41 194.851C249.906 195.55 250.154 196.485 250.154 197.654ZM261.581 188.727V200.948H265.527V202.715H255.032V200.948H259.35V190.494H255.165V188.727H261.581ZM259.801 182.178C260.297 182.178 260.691 182.329 260.984 182.63C261.285 182.931 261.435 183.298 261.435 183.732C261.435 184.184 261.285 184.565 260.984 184.875C260.691 185.176 260.297 185.326 259.801 185.326C259.332 185.326 258.947 185.176 258.646 184.875C258.345 184.565 258.194 184.184 258.194 183.732C258.194 183.298 258.345 182.931 258.646 182.63C258.947 182.329 259.332 182.178 259.801 182.178ZM279.65 188.435C280.102 188.435 280.531 188.532 280.939 188.727C281.355 188.922 281.696 189.298 281.962 189.856C282.227 190.414 282.36 191.229 282.36 192.3V202.715H280.288V192.659C280.288 191.782 280.235 191.149 280.129 190.759C280.022 190.37 279.717 190.175 279.212 190.175C278.796 190.175 278.38 190.308 277.963 190.573C277.556 190.83 277.157 191.255 276.768 191.849V202.715H274.682V192.659C274.682 191.782 274.629 191.149 274.523 190.759C274.416 190.37 274.111 190.175 273.606 190.175C273.172 190.175 272.752 190.308 272.344 190.573C271.946 190.83 271.552 191.255 271.162 191.849V202.715H269.103V188.727H270.856L270.989 190.348C271.37 189.807 271.795 189.356 272.265 188.993C272.743 188.621 273.332 188.435 274.031 188.435C274.563 188.435 275.063 188.563 275.532 188.82C276.002 189.068 276.347 189.555 276.568 190.281C276.949 189.732 277.379 189.289 277.857 188.953C278.335 188.607 278.933 188.435 279.65 188.435ZM292.618 188.435C293.858 188.435 294.846 188.736 295.581 189.338C296.324 189.94 296.86 190.79 297.188 191.889C297.516 192.978 297.679 194.253 297.679 195.714C297.679 197.122 297.48 198.38 297.082 199.487C296.692 200.585 296.099 201.448 295.302 202.077C294.505 202.706 293.499 203.02 292.286 203.02C290.754 203.02 289.523 202.48 288.593 201.4V208.068L286.362 208.347V188.727H288.261L288.447 190.68C288.961 189.962 289.572 189.409 290.28 189.019C290.998 188.63 291.777 188.435 292.618 188.435ZM292.087 190.228C291.316 190.228 290.635 190.463 290.041 190.932C289.457 191.393 288.974 191.906 288.593 192.473V199.407C288.956 199.947 289.412 200.377 289.962 200.696C290.519 201.006 291.13 201.161 291.795 201.161C292.955 201.161 293.827 200.718 294.412 199.832C294.996 198.947 295.288 197.57 295.288 195.701C295.288 194.479 295.173 193.465 294.943 192.659C294.713 191.844 294.363 191.238 293.894 190.839C293.424 190.432 292.822 190.228 292.087 190.228ZM307.738 183.095V199.261C307.738 199.952 307.951 200.443 308.376 200.736C308.81 201.019 309.368 201.161 310.05 201.161C310.475 201.161 310.878 201.116 311.258 201.028C311.639 200.939 312.02 200.82 312.401 200.669L312.999 202.303C312.618 202.489 312.144 202.653 311.577 202.795C311.019 202.945 310.386 203.02 309.678 203.02C308.438 203.02 307.433 202.679 306.662 201.998C305.892 201.307 305.507 200.355 305.507 199.141V184.861H301.216V183.095H307.738ZM325.302 188.727V200.948H329.248V202.715H318.753V200.948H323.071V190.494H318.886V188.727H325.302ZM323.522 182.178C324.018 182.178 324.412 182.329 324.705 182.63C325.006 182.931 325.156 183.298 325.156 183.732C325.156 184.184 325.006 184.565 324.705 184.875C324.412 185.176 324.018 185.326 323.522 185.326C323.053 185.326 322.668 185.176 322.367 184.875C322.066 184.565 321.915 184.184 321.915 183.732C321.915 183.298 322.066 182.931 322.367 182.63C322.668 182.329 323.053 182.178 323.522 182.178ZM342.415 182.816C343.168 182.816 343.85 182.882 344.461 183.015C345.072 183.148 345.652 183.334 346.201 183.573L345.483 185.233C345.032 185.038 344.554 184.892 344.049 184.795C343.544 184.698 343.021 184.649 342.481 184.649C341.507 184.649 340.772 184.839 340.276 185.22C339.789 185.601 339.546 186.185 339.546 186.973V189.816H344.288L344.049 191.57H339.546V202.715H337.314V191.57H333.98V189.816H337.314V187.027C337.314 186.159 337.535 185.41 337.978 184.782C338.43 184.153 339.041 183.67 339.811 183.334C340.582 182.988 341.45 182.816 342.415 182.816ZM357.163 189.816V200.948H361.108V202.715H350.614V200.948H354.931V191.57H350.747V189.816H357.163ZM355.383 183.148C355.879 183.148 356.273 183.298 356.565 183.599C356.866 183.9 357.017 184.268 357.017 184.702C357.017 185.154 356.866 185.534 356.565 185.844C356.273 186.145 355.879 186.296 355.383 186.296C354.913 186.296 354.528 186.145 354.227 185.844C353.926 185.534 353.775 185.154 353.775 184.702C353.775 184.268 353.926 183.9 354.227 183.599C354.528 183.298 354.913 183.148 355.383 183.148ZM367.766 196.511C367.811 197.592 368.019 198.477 368.391 199.168C368.763 199.85 369.254 200.355 369.865 200.682C370.476 201.001 371.14 201.161 371.858 201.161C372.575 201.161 373.222 201.054 373.797 200.842C374.382 200.629 374.979 200.315 375.59 199.899L376.64 201.373C375.985 201.887 375.236 202.29 374.395 202.582C373.562 202.874 372.708 203.02 371.831 203.02C370.476 203.02 369.32 202.715 368.364 202.104C367.408 201.493 366.677 200.643 366.172 199.553C365.676 198.455 365.428 197.184 365.428 195.741C365.428 194.324 365.681 193.066 366.185 191.968C366.69 190.87 367.399 190.007 368.311 189.378C369.223 188.749 370.299 188.435 371.539 188.435C372.717 188.435 373.731 188.714 374.581 189.272C375.431 189.821 376.082 190.609 376.534 191.636C376.994 192.655 377.224 193.872 377.224 195.289C377.224 195.528 377.22 195.754 377.211 195.967C377.202 196.17 377.189 196.352 377.171 196.511H367.766ZM371.565 190.268C370.529 190.268 369.661 190.635 368.962 191.37C368.271 192.105 367.877 193.243 367.78 194.784H375.072C375.046 193.288 374.718 192.163 374.089 191.41C373.461 190.649 372.619 190.268 371.565 190.268ZM390.312 182.816L392.544 183.095V202.715H390.591L390.378 200.868C389.856 201.612 389.254 202.157 388.572 202.502C387.899 202.848 387.177 203.02 386.406 203.02C385.193 203.02 384.192 202.715 383.404 202.104C382.616 201.493 382.032 200.643 381.651 199.553C381.27 198.455 381.08 197.184 381.08 195.741C381.08 194.342 381.297 193.093 381.73 191.995C382.164 190.888 382.789 190.02 383.604 189.391C384.427 188.754 385.415 188.435 386.566 188.435C387.372 188.435 388.08 188.576 388.691 188.86C389.302 189.134 389.842 189.542 390.312 190.082V182.816ZM387.15 190.228C385.981 190.228 385.082 190.684 384.454 191.596C383.825 192.508 383.511 193.89 383.511 195.741C383.511 196.945 383.639 197.955 383.896 198.77C384.153 199.584 384.529 200.195 385.025 200.603C385.53 201.01 386.145 201.214 386.871 201.214C387.668 201.214 388.346 200.988 388.904 200.536C389.471 200.085 389.94 199.575 390.312 199.009V192.021C389.931 191.455 389.471 191.016 388.93 190.706C388.39 190.387 387.797 190.228 387.15 190.228ZM400.822 200.669C400.822 200.235 400.924 199.846 401.128 199.5C401.332 199.146 401.606 198.867 401.951 198.663C402.306 198.451 402.704 198.344 403.147 198.344C403.599 198.344 404.002 198.451 404.356 198.663C404.71 198.867 404.989 199.146 405.193 199.5C405.396 199.846 405.498 200.235 405.498 200.669C405.498 201.103 405.396 201.502 405.193 201.865C404.989 202.219 404.71 202.502 404.356 202.715C404.002 202.919 403.599 203.02 403.147 203.02C402.704 203.02 402.306 202.919 401.951 202.715C401.606 202.502 401.332 202.219 401.128 201.865C400.924 201.502 400.822 201.103 400.822 200.669Z" fill="#560591"/>
</svg>
