<svg width="611" height="184" viewBox="0 0 611 184" fill="none" xmlns="http://www.w3.org/2000/svg">
<g clip-path="url(#clip0_2_3)">
<path d="M194.569 36.133V64.1253H231.638V82.0496H194.569V124H169.475V18.285H238.96L236.367 36.133H194.569ZM290.233 40.328C298.572 40.328 305.665 42.1077 311.513 45.6671C317.361 49.2266 321.835 54.2352 324.937 60.693C328.039 67.1 329.59 74.6256 329.59 83.27C329.59 92.2702 328.013 100.025 324.861 106.533C321.759 112.991 317.284 117.949 311.437 121.407C305.589 124.864 298.521 126.593 290.233 126.593C281.995 126.593 274.927 124.89 269.029 121.483C263.181 118.076 258.681 113.144 255.528 106.686C252.426 100.228 250.876 92.4736 250.876 83.4225C250.876 74.829 252.426 67.3034 255.528 60.8456C258.681 54.3877 263.181 49.3537 269.029 45.7434C274.927 42.1331 281.995 40.328 290.233 40.328ZM290.233 58.0997C285.3 58.0997 281.639 60.1337 279.249 64.2016C276.91 68.2187 275.741 74.6256 275.741 83.4225C275.741 92.3719 276.91 98.8552 279.249 102.872C281.639 106.889 285.3 108.898 290.233 108.898C295.165 108.898 298.801 106.889 301.14 102.872C303.53 98.8552 304.725 92.3211 304.725 83.27C304.725 74.5239 303.53 68.1424 301.14 64.1253C298.801 60.1083 295.165 58.0997 290.233 58.0997ZM347.378 124V107.83H358.056V59.015H347.378V42.9976H376.438L380.862 61.2269C383.761 54.2606 387.447 49.074 391.922 45.6671C396.447 42.2603 401.965 40.5568 408.473 40.5568C411.219 40.5568 413.66 40.7856 415.795 41.2433C417.931 41.6501 419.94 42.2348 421.821 42.9976L414.499 62.9049C413.024 62.4982 411.55 62.1931 410.075 61.9897C408.6 61.7863 406.973 61.6846 405.193 61.6846C399.905 61.6846 395.253 63.8456 391.235 68.1678C387.269 72.49 384.244 77.9817 382.159 84.6429V107.83H398.176V124H347.378ZM402.219 76.863V53.2182L405.804 42.9976H421.821L417.321 76.863H402.219ZM581.113 8.29313C587.012 8.29313 592.224 8.7762 596.75 9.74233C601.275 10.6576 605.318 11.878 608.877 13.4035L602.241 29.1158C599.445 28.048 596.572 27.2852 593.622 26.8276C590.673 26.3191 587.749 26.0649 584.851 26.0649C580.071 26.0649 576.639 26.9293 574.554 28.6582C572.52 30.387 571.503 33.26 571.503 37.2771V48.1079H597.894L595.224 64.8118H571.503V124H547.553V64.8118H530.544V48.1079H547.553V36.3618C547.553 31.0226 548.824 26.2428 551.367 22.0224C553.909 17.8019 557.672 14.4713 562.655 12.0305C567.639 9.53893 573.791 8.29313 581.113 8.29313Z" fill="#8216FD"/>
<path d="M487.586 42.9976V107.525H508.179V124H440.525V107.525H463.483V59.4726H441.288V42.9976H487.586ZM473.017 0.589514C477.187 0.589514 480.594 1.88616 483.238 4.47946C485.882 7.07276 487.204 10.3017 487.204 14.1662C487.204 18.0307 485.882 21.285 483.238 23.9292C480.594 26.5225 477.187 27.8191 473.017 27.8191C468.797 27.8191 465.339 26.5225 462.644 23.9292C460 21.285 458.678 18.0307 458.678 14.1662C458.678 10.3017 460 7.07276 462.644 4.47946C465.339 1.88616 468.797 0.589514 473.017 0.589514Z" fill="#C921AA"/>
<path d="M179.204 156.708V158.555H175.139V173.154H179.204V175H168.736V173.154H172.801V158.555H168.736V156.708H179.204ZM184.6 175V161.012H186.5L186.673 162.952C187.239 162.234 187.948 161.685 188.798 161.304C189.657 160.915 190.489 160.72 191.295 160.72C192.668 160.72 193.664 161.083 194.284 161.809C194.913 162.535 195.227 163.545 195.227 164.838V175H192.996V166.485C192.996 165.529 192.943 164.758 192.836 164.174C192.73 163.58 192.509 163.151 192.172 162.885C191.836 162.611 191.313 162.473 190.605 162.473C190.056 162.473 189.537 162.593 189.05 162.832C188.572 163.071 188.143 163.372 187.762 163.735C187.39 164.09 187.08 164.448 186.832 164.811V175H184.6ZM211.636 174.296C211.158 174.615 210.578 174.863 209.896 175.04C209.214 175.217 208.545 175.306 207.89 175.306C206.384 175.306 205.224 174.911 204.409 174.123C203.595 173.335 203.187 172.321 203.187 171.081V162.739H199.973V161.012H203.187V157.837L205.419 157.572V161.012H210.254L209.989 162.739H205.419V171.055C205.419 171.834 205.623 172.427 206.03 172.835C206.446 173.242 207.133 173.446 208.089 173.446C208.612 173.446 209.094 173.384 209.537 173.26C209.98 173.136 210.392 172.976 210.772 172.782L211.636 174.296ZM218.214 168.796C218.259 169.877 218.467 170.762 218.839 171.453C219.211 172.135 219.702 172.64 220.313 172.968C220.924 173.286 221.588 173.446 222.306 173.446C223.023 173.446 223.669 173.34 224.245 173.127C224.83 172.914 225.427 172.6 226.038 172.184L227.088 173.658C226.433 174.172 225.684 174.575 224.843 174.867C224.01 175.159 223.156 175.306 222.279 175.306C220.924 175.306 219.768 175 218.812 174.389C217.856 173.778 217.125 172.928 216.62 171.838C216.124 170.74 215.876 169.469 215.876 168.026C215.876 166.609 216.129 165.351 216.633 164.253C217.138 163.155 217.847 162.292 218.759 161.663C219.671 161.034 220.747 160.72 221.987 160.72C223.165 160.72 224.179 160.999 225.029 161.557C225.879 162.106 226.53 162.894 226.982 163.921C227.442 164.94 227.672 166.157 227.672 167.574C227.672 167.813 227.668 168.039 227.659 168.252C227.65 168.455 227.637 168.637 227.619 168.796H218.214ZM222.013 162.553C220.977 162.553 220.109 162.921 219.41 163.656C218.719 164.391 218.325 165.529 218.228 167.07H225.52C225.494 165.573 225.166 164.448 224.537 163.695C223.909 162.934 223.067 162.553 222.013 162.553ZM237.837 155.38V171.546C237.837 172.237 238.05 172.728 238.475 173.021C238.909 173.304 239.467 173.446 240.149 173.446C240.574 173.446 240.977 173.402 241.358 173.313C241.738 173.224 242.119 173.105 242.5 172.954L243.098 174.588C242.717 174.774 242.243 174.938 241.676 175.08C241.119 175.23 240.485 175.306 239.777 175.306C238.537 175.306 237.532 174.965 236.761 174.283C235.991 173.592 235.606 172.64 235.606 171.427V157.147H231.315V155.38H237.837ZM253.768 155.38V171.546C253.768 172.237 253.98 172.728 254.405 173.021C254.839 173.304 255.397 173.446 256.079 173.446C256.504 173.446 256.907 173.402 257.288 173.313C257.669 173.224 258.049 173.105 258.43 172.954L259.028 174.588C258.647 174.774 258.173 174.938 257.607 175.08C257.049 175.23 256.416 175.306 255.707 175.306C254.467 175.306 253.462 174.965 252.692 174.283C251.921 173.592 251.536 172.64 251.536 171.427V157.147H247.245V155.38H253.768ZM271.332 161.012V173.233H275.277V175H264.783V173.233H269.1V162.779H264.916V161.012H271.332ZM269.552 154.463C270.048 154.463 270.442 154.614 270.734 154.915C271.035 155.216 271.186 155.583 271.186 156.017C271.186 156.469 271.035 156.85 270.734 157.16C270.442 157.461 270.048 157.611 269.552 157.611C269.082 157.611 268.697 157.461 268.396 157.16C268.095 156.85 267.944 156.469 267.944 156.017C267.944 155.583 268.095 155.216 268.396 154.915C268.697 154.614 269.082 154.463 269.552 154.463ZM291.553 159.524L292.243 161.623C291.65 161.809 291.017 161.924 290.344 161.969C289.671 162.013 288.94 162.035 288.152 162.035C288.958 162.407 289.565 162.89 289.972 163.483C290.379 164.067 290.583 164.758 290.583 165.555C290.583 166.476 290.375 167.295 289.959 168.013C289.542 168.73 288.94 169.292 288.152 169.7C287.373 170.107 286.43 170.311 285.323 170.311C284.853 170.311 284.459 170.289 284.14 170.244C283.83 170.2 283.529 170.134 283.237 170.045C283.025 170.187 282.847 170.382 282.706 170.63C282.573 170.878 282.506 171.134 282.506 171.4C282.506 171.737 282.639 172.016 282.905 172.237C283.171 172.458 283.662 172.569 284.379 172.569H286.903C287.842 172.569 288.683 172.737 289.427 173.074C290.18 173.41 290.769 173.862 291.194 174.429C291.628 174.996 291.845 175.642 291.845 176.368C291.845 177.741 291.26 178.795 290.092 179.53C288.931 180.265 287.289 180.632 285.163 180.632C283.675 180.632 282.502 180.477 281.643 180.167C280.784 179.866 280.168 179.401 279.797 178.773C279.433 178.153 279.252 177.369 279.252 176.421H281.271C281.271 176.962 281.377 177.409 281.59 177.763C281.802 178.117 282.188 178.379 282.746 178.547C283.303 178.724 284.105 178.812 285.15 178.812C286.177 178.812 287.014 178.724 287.661 178.547C288.316 178.379 288.799 178.122 289.109 177.776C289.427 177.44 289.587 177.019 289.587 176.514C289.587 175.85 289.286 175.35 288.683 175.013C288.081 174.677 287.328 174.508 286.425 174.508H283.928C282.723 174.508 281.833 174.243 281.258 173.711C280.691 173.18 280.408 172.569 280.408 171.878C280.408 171.427 280.536 170.988 280.793 170.563C281.058 170.138 281.444 169.762 281.949 169.434C281.143 169.009 280.549 168.482 280.168 167.853C279.788 167.225 279.597 166.463 279.597 165.568C279.597 164.621 279.832 163.784 280.301 163.058C280.771 162.323 281.426 161.747 282.267 161.331C283.109 160.915 284.078 160.707 285.176 160.707C286.354 160.698 287.311 160.649 288.046 160.56C288.781 160.463 289.41 160.326 289.932 160.149C290.463 159.972 291.004 159.763 291.553 159.524ZM285.176 162.34C284.052 162.34 283.219 162.646 282.679 163.257C282.148 163.859 281.882 164.63 281.882 165.568C281.882 166.516 282.157 167.295 282.706 167.906C283.255 168.517 284.096 168.823 285.23 168.823C286.221 168.823 286.974 168.535 287.488 167.96C288.01 167.384 288.272 166.582 288.272 165.555C288.272 164.501 288.01 163.704 287.488 163.164C286.974 162.615 286.204 162.34 285.176 162.34ZM297.865 168.796C297.91 169.877 298.118 170.762 298.49 171.453C298.862 172.135 299.353 172.64 299.964 172.968C300.575 173.286 301.24 173.446 301.957 173.446C302.674 173.446 303.321 173.34 303.896 173.127C304.481 172.914 305.079 172.6 305.69 172.184L306.739 173.658C306.084 174.172 305.335 174.575 304.494 174.867C303.662 175.159 302.807 175.306 301.93 175.306C300.575 175.306 299.42 175 298.463 174.389C297.507 173.778 296.776 172.928 296.271 171.838C295.775 170.74 295.528 169.469 295.528 168.026C295.528 166.609 295.78 165.351 296.285 164.253C296.789 163.155 297.498 162.292 298.41 161.663C299.322 161.034 300.398 160.72 301.638 160.72C302.816 160.72 303.83 160.999 304.68 161.557C305.53 162.106 306.181 162.894 306.633 163.921C307.093 164.94 307.324 166.157 307.324 167.574C307.324 167.813 307.319 168.039 307.31 168.252C307.301 168.455 307.288 168.637 307.27 168.796H297.865ZM301.665 162.553C300.629 162.553 299.761 162.921 299.061 163.656C298.37 164.391 297.976 165.529 297.879 167.07H305.172C305.145 165.573 304.817 164.448 304.189 163.695C303.56 162.934 302.719 162.553 301.665 162.553ZM312.042 175V161.012H313.942L314.115 162.952C314.681 162.234 315.39 161.685 316.24 161.304C317.099 160.915 317.931 160.72 318.737 160.72C320.11 160.72 321.106 161.083 321.726 161.809C322.355 162.535 322.669 163.545 322.669 164.838V175H320.438V166.485C320.438 165.529 320.385 164.758 320.278 164.174C320.172 163.58 319.951 163.151 319.614 162.885C319.278 162.611 318.755 162.473 318.047 162.473C317.497 162.473 316.979 162.593 316.492 162.832C316.014 163.071 315.585 163.372 315.204 163.735C314.832 164.09 314.522 164.448 314.274 164.811V175H312.042ZM334.296 173.379C334.995 173.379 335.646 173.264 336.248 173.034C336.859 172.804 337.422 172.511 337.935 172.157L339.025 173.618C338.414 174.141 337.679 174.553 336.82 174.854C335.961 175.155 335.119 175.306 334.296 175.306C332.905 175.306 331.719 175.009 330.736 174.416C329.761 173.813 329.017 172.972 328.504 171.892C327.99 170.802 327.733 169.527 327.733 168.066C327.733 166.667 327.99 165.413 328.504 164.306C329.026 163.191 329.775 162.314 330.749 161.676C331.732 161.039 332.923 160.72 334.322 160.72C335.217 160.72 336.053 160.857 336.833 161.132C337.621 161.397 338.343 161.8 338.998 162.34L337.909 163.828C337.315 163.412 336.718 163.102 336.115 162.898C335.522 162.686 334.916 162.58 334.296 162.58C333.091 162.58 332.099 163.031 331.32 163.935C330.541 164.838 330.151 166.215 330.151 168.066C330.151 169.306 330.328 170.32 330.682 171.108C331.045 171.887 331.537 172.463 332.157 172.835C332.786 173.198 333.499 173.379 334.296 173.379ZM345.656 168.796C345.7 169.877 345.909 170.762 346.281 171.453C346.652 172.135 347.144 172.64 347.755 172.968C348.366 173.286 349.03 173.446 349.748 173.446C350.465 173.446 351.111 173.34 351.687 173.127C352.272 172.914 352.869 172.6 353.48 172.184L354.53 173.658C353.874 174.172 353.126 174.575 352.285 174.867C351.452 175.159 350.598 175.306 349.721 175.306C348.366 175.306 347.21 175 346.254 174.389C345.298 173.778 344.567 172.928 344.062 171.838C343.566 170.74 343.318 169.469 343.318 168.026C343.318 166.609 343.571 165.351 344.075 164.253C344.58 163.155 345.289 162.292 346.201 161.663C347.113 161.034 348.189 160.72 349.429 160.72C350.607 160.72 351.621 160.999 352.471 161.557C353.321 162.106 353.972 162.894 354.424 163.921C354.884 164.94 355.114 166.157 355.114 167.574C355.114 167.813 355.11 168.039 355.101 168.252C355.092 168.455 355.079 168.637 355.061 168.796H345.656ZM349.455 162.553C348.419 162.553 347.551 162.921 346.852 163.656C346.161 164.391 345.767 165.529 345.669 167.07H352.962C352.936 165.573 352.608 164.448 351.979 163.695C351.351 162.934 350.509 162.553 349.455 162.553ZM362.782 172.954C362.782 172.52 362.884 172.131 363.088 171.785C363.291 171.431 363.566 171.152 363.911 170.948C364.265 170.736 364.664 170.63 365.107 170.63C365.558 170.63 365.961 170.736 366.315 170.948C366.67 171.152 366.949 171.431 367.152 171.785C367.356 172.131 367.458 172.52 367.458 172.954C367.458 173.388 367.356 173.787 367.152 174.15C366.949 174.504 366.67 174.787 366.315 175C365.961 175.204 365.558 175.306 365.107 175.306C364.664 175.306 364.265 175.204 363.911 175C363.566 174.787 363.291 174.504 363.088 174.15C362.884 173.787 362.782 173.388 362.782 172.954ZM435.137 169.939C435.137 170.984 434.876 171.914 434.354 172.728C433.831 173.534 433.074 174.168 432.082 174.628C431.09 175.08 429.881 175.306 428.456 175.306C427.118 175.306 425.905 175.102 424.816 174.694C423.735 174.287 422.81 173.711 422.04 172.968L423.408 171.427C424.045 172.02 424.776 172.494 425.6 172.848C426.423 173.193 427.389 173.366 428.496 173.366C429.239 173.366 429.935 173.247 430.581 173.007C431.228 172.759 431.75 172.388 432.149 171.892C432.547 171.387 432.746 170.749 432.746 169.979C432.746 169.385 432.631 168.881 432.401 168.464C432.171 168.048 431.763 167.681 431.179 167.362C430.594 167.034 429.78 166.715 428.735 166.405C427.53 166.051 426.485 165.653 425.6 165.21C424.723 164.758 424.041 164.205 423.554 163.549C423.076 162.894 422.837 162.084 422.837 161.118C422.837 160.206 423.089 159.396 423.594 158.687C424.099 157.979 424.794 157.425 425.679 157.027C426.574 156.62 427.601 156.416 428.761 156.416C430.028 156.416 431.126 156.597 432.056 156.961C432.994 157.315 433.845 157.828 434.606 158.501L433.251 160.003C432.596 159.418 431.892 158.997 431.139 158.741C430.386 158.475 429.62 158.342 428.841 158.342C428.177 158.342 427.566 158.444 427.008 158.648C426.459 158.842 426.016 159.139 425.679 159.538C425.352 159.927 425.188 160.428 425.188 161.039C425.188 161.561 425.33 162.013 425.613 162.394C425.896 162.774 426.375 163.124 427.048 163.443C427.721 163.753 428.637 164.081 429.797 164.426C430.745 164.701 431.622 165.046 432.428 165.462C433.242 165.87 433.898 166.427 434.394 167.136C434.89 167.836 435.137 168.77 435.137 169.939ZM446.564 161.012V173.233H450.51V175H440.016V173.233H444.333V162.779H440.148V161.012H446.564ZM444.784 154.463C445.28 154.463 445.674 154.614 445.967 154.915C446.268 155.216 446.418 155.583 446.418 156.017C446.418 156.469 446.268 156.85 445.967 157.16C445.674 157.461 445.28 157.611 444.784 157.611C444.315 157.611 443.93 157.461 443.629 157.16C443.328 156.85 443.177 156.469 443.177 156.017C443.177 155.583 443.328 155.216 443.629 154.915C443.93 154.614 444.315 154.463 444.784 154.463ZM464.633 160.72C465.085 160.72 465.515 160.817 465.922 161.012C466.338 161.207 466.679 161.583 466.945 162.141C467.211 162.699 467.343 163.514 467.343 164.585V175H465.271V164.944C465.271 164.067 465.218 163.434 465.112 163.045C465.005 162.655 464.7 162.46 464.195 162.46C463.779 162.46 463.363 162.593 462.946 162.859C462.539 163.115 462.14 163.54 461.751 164.134V175H459.665V164.944C459.665 164.067 459.612 163.434 459.506 163.045C459.4 162.655 459.094 162.46 458.589 162.46C458.155 162.46 457.735 162.593 457.327 162.859C456.929 163.115 456.535 163.54 456.145 164.134V175H454.086V161.012H455.84L455.972 162.633C456.353 162.093 456.778 161.641 457.248 161.278C457.726 160.906 458.315 160.72 459.014 160.72C459.546 160.72 460.046 160.848 460.515 161.105C460.985 161.353 461.33 161.84 461.552 162.566C461.932 162.017 462.362 161.574 462.84 161.238C463.318 160.893 463.916 160.72 464.633 160.72ZM477.601 160.72C478.841 160.72 479.829 161.021 480.564 161.623C481.308 162.225 481.843 163.076 482.171 164.174C482.499 165.263 482.663 166.538 482.663 167.999C482.663 169.407 482.463 170.665 482.065 171.772C481.675 172.87 481.082 173.734 480.285 174.362C479.488 174.991 478.483 175.306 477.269 175.306C475.737 175.306 474.506 174.765 473.576 173.685V180.353L471.345 180.632V161.012H473.244L473.43 162.965C473.944 162.248 474.555 161.694 475.263 161.304C475.981 160.915 476.76 160.72 477.601 160.72ZM477.07 162.513C476.3 162.513 475.618 162.748 475.024 163.217C474.44 163.678 473.957 164.191 473.576 164.758V171.692C473.939 172.233 474.396 172.662 474.945 172.981C475.503 173.291 476.114 173.446 476.778 173.446C477.938 173.446 478.81 173.003 479.395 172.117C479.979 171.232 480.271 169.855 480.271 167.986C480.271 166.764 480.156 165.75 479.926 164.944C479.696 164.129 479.346 163.523 478.877 163.124C478.407 162.717 477.805 162.513 477.07 162.513ZM492.721 155.38V171.546C492.721 172.237 492.934 172.728 493.359 173.021C493.793 173.304 494.351 173.446 495.033 173.446C495.458 173.446 495.861 173.402 496.242 173.313C496.622 173.224 497.003 173.105 497.384 172.954L497.982 174.588C497.601 174.774 497.127 174.938 496.56 175.08C496.002 175.23 495.369 175.306 494.661 175.306C493.421 175.306 492.416 174.965 491.645 174.283C490.875 173.592 490.49 172.64 490.49 171.427V157.147H486.199V155.38H492.721ZM510.285 161.012V173.233H514.231V175H503.737V173.233H508.054V162.779H503.869V161.012H510.285ZM508.505 154.463C509.001 154.463 509.395 154.614 509.688 154.915C509.989 155.216 510.139 155.583 510.139 156.017C510.139 156.469 509.989 156.85 509.688 157.16C509.395 157.461 509.001 157.611 508.505 157.611C508.036 157.611 507.651 157.461 507.35 157.16C507.049 156.85 506.898 156.469 506.898 156.017C506.898 155.583 507.049 155.216 507.35 154.915C507.651 154.614 508.036 154.463 508.505 154.463ZM527.398 155.101C528.151 155.101 528.833 155.167 529.444 155.3C530.055 155.433 530.635 155.619 531.184 155.858L530.467 157.518C530.015 157.324 529.537 157.177 529.032 157.08C528.527 156.983 528.005 156.934 527.464 156.934C526.49 156.934 525.755 157.124 525.259 157.505C524.772 157.886 524.529 158.47 524.529 159.259V162.101H529.271L529.032 163.855H524.529V175H522.297V163.855H518.963V162.101H522.297V159.312C522.297 158.444 522.518 157.696 522.961 157.067C523.413 156.438 524.024 155.955 524.794 155.619C525.565 155.273 526.433 155.101 527.398 155.101ZM542.146 162.101V173.233H546.091V175H535.597V173.233H539.914V163.855H535.73V162.101H542.146ZM540.366 155.433C540.862 155.433 541.256 155.583 541.548 155.885C541.849 156.186 542 156.553 542 156.987C542 157.439 541.849 157.82 541.548 158.13C541.256 158.431 540.862 158.581 540.366 158.581C539.897 158.581 539.511 158.431 539.21 158.13C538.909 157.82 538.759 157.439 538.759 156.987C538.759 156.553 538.909 156.186 539.21 155.885C539.511 155.583 539.897 155.433 540.366 155.433ZM552.749 168.796C552.794 169.877 553.002 170.762 553.374 171.453C553.746 172.135 554.237 172.64 554.848 172.968C555.459 173.286 556.123 173.446 556.841 173.446C557.558 173.446 558.205 173.34 558.78 173.127C559.365 172.914 559.962 172.6 560.574 172.184L561.623 173.658C560.968 174.172 560.219 174.575 559.378 174.867C558.546 175.159 557.691 175.306 556.814 175.306C555.459 175.306 554.304 175 553.347 174.389C552.391 173.778 551.66 172.928 551.155 171.838C550.659 170.74 550.411 169.469 550.411 168.026C550.411 166.609 550.664 165.351 551.169 164.253C551.673 163.155 552.382 162.292 553.294 161.663C554.206 161.034 555.282 160.72 556.522 160.72C557.7 160.72 558.714 160.999 559.564 161.557C560.414 162.106 561.065 162.894 561.517 163.921C561.977 164.94 562.207 166.157 562.207 167.574C562.207 167.813 562.203 168.039 562.194 168.252C562.185 168.455 562.172 168.637 562.154 168.796H552.749ZM556.549 162.553C555.512 162.553 554.645 162.921 553.945 163.656C553.254 164.391 552.86 165.529 552.763 167.07H560.055C560.029 165.573 559.701 164.448 559.072 163.695C558.444 162.934 557.602 162.553 556.549 162.553ZM575.295 155.101L577.527 155.38V175H575.574L575.361 173.154C574.839 173.897 574.237 174.442 573.555 174.787C572.882 175.133 572.16 175.306 571.39 175.306C570.176 175.306 569.176 175 568.387 174.389C567.599 173.778 567.015 172.928 566.634 171.838C566.253 170.74 566.063 169.469 566.063 168.026C566.063 166.627 566.28 165.378 566.714 164.28C567.148 163.173 567.772 162.305 568.587 161.676C569.41 161.039 570.398 160.72 571.549 160.72C572.355 160.72 573.063 160.862 573.674 161.145C574.285 161.419 574.826 161.827 575.295 162.367V155.101ZM572.133 162.513C570.964 162.513 570.066 162.969 569.437 163.881C568.808 164.794 568.494 166.175 568.494 168.026C568.494 169.23 568.622 170.24 568.879 171.055C569.136 171.869 569.512 172.48 570.008 172.888C570.513 173.295 571.128 173.499 571.854 173.499C572.651 173.499 573.329 173.273 573.887 172.821C574.454 172.37 574.923 171.861 575.295 171.294V164.306C574.914 163.74 574.454 163.301 573.913 162.991C573.373 162.673 572.78 162.513 572.133 162.513ZM585.805 172.954C585.805 172.52 585.907 172.131 586.111 171.785C586.315 171.431 586.589 171.152 586.935 170.948C587.289 170.736 587.687 170.63 588.13 170.63C588.582 170.63 588.985 170.736 589.339 170.948C589.693 171.152 589.972 171.431 590.176 171.785C590.379 172.131 590.481 172.52 590.481 172.954C590.481 173.388 590.379 173.787 590.176 174.15C589.972 174.504 589.693 174.787 589.339 175C588.985 175.204 588.582 175.306 588.13 175.306C587.687 175.306 587.289 175.204 586.935 175C586.589 174.787 586.315 174.504 586.111 174.15C585.907 173.787 585.805 173.388 585.805 172.954Z" fill="#560591"/>
<path d="M78.5717 18.6098H41.9187C18.696 18.6098 0 37.3064 0 60.5293V130.929C0 154.152 18.696 172.848 41.9187 172.848H83.6544L71.9105 158.167H44.4125C26.2697 158.167 11.6641 143.561 11.6641 125.418V65.5225C11.6641 47.3796 26.2697 32.7733 44.4125 32.7733H64.4081L78.5717 18.6098Z" fill="url(#paint0_linear_2_3)"/>
<path d="M76.5758 40.6931L68.0784 54.8566H82.2468C91.142 54.8566 98.3029 62.0174 98.3029 70.9127V122.431C98.3029 130.243 92.7773 136.709 85.4069 138.17L87.8527 150.397C101.739 146.601 111.902 133.969 111.902 118.845V111.511L120.233 94.8479L111.902 82.3506V73.4422C111.902 55.2993 97.2962 40.6931 79.1534 40.6931H76.5758Z" fill="url(#paint1_linear_2_3)"/>
<path d="M61.9127 25.7419H40.7252C21.1149 25.7419 5.30322 41.5536 5.30322 61.1639V104.013H6.87756V61.1639C6.87756 42.3986 21.9599 27.3163 40.7252 27.3163H61.9127V25.7419Z" fill="#560591"/>
<path d="M83.2542 26.5296H93.9298C113.118 26.5296 128.565 41.9768 128.565 61.1646V128.984C128.565 148.172 113.118 163.619 93.9298 163.619H90.2847" stroke="#560591" stroke-width="1.57446"/>
<path d="M61.9127 29.6785C63.6518 29.6785 65.0616 28.2687 65.0616 26.5296C65.0616 24.7905 63.6518 23.3806 61.9127 23.3806C60.1736 23.3806 58.7638 24.7905 58.7638 26.5296C58.7638 28.2687 60.1736 29.6785 61.9127 29.6785Z" fill="#1E046C" stroke="#1E046C" stroke-width="0.78723"/>
<path d="M5.81683 108.915C7.55593 108.915 8.96574 107.505 8.96574 105.766C8.96574 104.027 7.55593 102.617 5.81683 102.617C4.07773 102.617 2.66791 104.027 2.66791 105.766C2.66791 107.505 4.07773 108.915 5.81683 108.915Z" fill="#1E046C" stroke="#1E046C" stroke-width="0.78723"/>
<path d="M81.0751 29.6785C82.8142 29.6785 84.224 28.2687 84.224 26.5296C84.224 24.7905 82.8142 23.3806 81.0751 23.3806C79.336 23.3806 77.9262 24.7905 77.9262 26.5296C77.9262 28.2687 79.336 29.6785 81.0751 29.6785Z" fill="#7E00FF" stroke="#A562EA" stroke-width="0.78723"/>
<path d="M87.7403 166.314C89.4794 166.314 90.8892 164.904 90.8892 163.165C90.8892 161.426 89.4794 160.016 87.7403 160.016C86.0012 160.016 84.5914 161.426 84.5914 163.165C84.5914 164.904 86.0012 166.314 87.7403 166.314Z" fill="#7E00FF" stroke="#A562EA" stroke-width="0.78723"/>
<path d="M57.1693 40.6922C39.0264 40.6922 24.4209 55.2985 24.4209 73.4414V82.3506L16.0894 94.8479L24.4209 111.511V118.845C24.4209 136.988 39.0264 151.593 57.1693 151.593H60.7777C60.2371 151.2 59.6755 150.822 59.1846 150.392C58.3868 149.694 57.6612 148.943 57.0285 148.123C56.3959 147.304 55.8561 146.415 55.4306 145.443C55.2178 144.957 55.0337 144.45 54.8806 143.92C54.7275 143.39 54.6059 142.837 54.5177 142.259C54.4295 141.682 54.3747 141.079 54.3566 140.449C54.3387 139.823 54.3579 139.169 54.4144 138.487H52.9743C44.079 138.487 36.9182 131.326 36.9182 122.431V70.9127C36.9182 62.0175 44.079 54.8558 52.9743 54.8558H68.0784L76.5759 40.6922H57.1693Z" fill="url(#paint2_linear_2_3)"/>
<path d="M65.618 46.5723H55.8024C41.6873 46.5723 30.2977 57.9595 30.2977 72.0746V120.676H31.8721V72.0746C31.8721 58.8045 42.5323 48.1467 55.8024 48.1467H65.539L65.618 46.5723Z" fill="#C921AA"/>
<path d="M65.2453 51.3404C66.9844 51.3404 68.3942 49.9306 68.3942 48.1915C68.3942 46.4524 66.9844 45.0426 65.2453 45.0426C63.5062 45.0426 62.0964 46.4524 62.0964 48.1915C62.0964 49.9306 63.5062 51.3404 65.2453 51.3404Z" fill="#C921AA" stroke="#C921AA" stroke-width="0.78723"/>
<path d="M31.0861 122.991C32.8252 122.991 34.235 121.581 34.235 119.842C34.235 118.103 32.8252 116.693 31.0861 116.693C29.347 116.693 27.9371 118.103 27.9371 119.842C27.9371 121.581 29.347 122.991 31.0861 122.991Z" fill="#C921AA" stroke="#C921AA" stroke-width="0.78723"/>
<path d="M104.83 75.1061L103.255 76.0906V121.12C103.255 128.006 100.369 134.172 95.753 138.526L96.6284 139.84C101.664 135.185 104.83 128.54 104.83 121.12V75.1061Z" fill="#C921AA"/>
<path d="M103.57 78.0009C105.309 78.0009 106.719 76.5911 106.719 74.852C106.719 73.1129 105.309 71.7031 103.57 71.7031C101.831 71.7031 100.421 73.1129 100.421 74.852C100.421 76.5911 101.831 78.0009 103.57 78.0009Z" fill="#C921AA" stroke="#C921AA" stroke-width="0.78723"/>
<path d="M93.5725 143.819C95.3116 143.819 96.7214 142.409 96.7214 140.67C96.7214 138.931 95.3116 137.521 93.5725 137.521C91.8334 137.521 90.4236 138.931 90.4236 140.67C90.4236 142.409 91.8334 143.819 93.5725 143.819Z" fill="#C921AA" stroke="#C921AA" stroke-width="0.78723"/>
<path d="M52.3534 89.3422L73.9037 89.727C73.9037 89.727 73.7252 125.364 74.2886 137.831C74.4022 140.348 81.6003 139.755 81.6003 139.755V150.915C81.6003 150.915 72.4571 152.105 67.3617 151.3C67.3617 151.3 60.1696 148.014 60.0499 142.449C59.8143 131.49 60.3572 114.906 60.0499 103.196C59.9822 100.615 56.2999 97.4315 53.123 99.7326C50.3104 101.77 52.3534 89.3422 52.3534 89.3422Z" fill="#C921AA"/>
<path d="M62.7459 84.2991C67.9632 84.2991 72.1926 80.0696 72.1926 74.8523C72.1926 69.635 67.9632 65.4055 62.7459 65.4055C57.5286 65.4055 53.2991 69.635 53.2991 74.8523C53.2991 80.0696 57.5286 84.2991 62.7459 84.2991Z" fill="#C921AA"/>
</g>
<defs>
<linearGradient id="paint0_linear_2_3" x1="43.6327" y1="66.0479" x2="49.721" y2="198.468" gradientUnits="userSpaceOnUse">
<stop stop-color="#C370FF"/>
<stop offset="0.795222" stop-color="#8216FD"/>
<stop offset="1" stop-color="#8121C9"/>
</linearGradient>
<linearGradient id="paint1_linear_2_3" x1="78.5757" y1="61.5218" x2="129.277" y2="164.711" gradientUnits="userSpaceOnUse">
<stop stop-color="#A562EA"/>
<stop offset="0.73128" stop-color="#560591"/>
<stop offset="1" stop-color="#560591"/>
</linearGradient>
<linearGradient id="paint2_linear_2_3" x1="70.2442" y1="74.8516" x2="100.117" y2="148.048" gradientUnits="userSpaceOnUse">
<stop stop-color="#560591"/>
<stop offset="1" stop-color="#C370FF"/>
</linearGradient>
<clipPath id="clip0_2_3">
<rect width="611" height="184" fill="white"/>
</clipPath>
</defs>
</svg>
