<svg width="130" height="155" viewBox="0 0 130 155" fill="none" xmlns="http://www.w3.org/2000/svg">
<path d="M78.5717 0H41.9187C18.696 0 0 18.6966 0 41.9196V112.319C0 135.542 18.696 154.238 41.9187 154.238H83.6544L71.9105 139.558H44.4125C26.2697 139.558 11.6641 124.951 11.6641 106.809V46.9128C11.6641 28.7699 26.2697 14.1636 44.4125 14.1636H64.4081L78.5717 0Z" fill="url(#paint0_linear_1_108)"/>
<path d="M76.5758 22.0833L68.0784 36.2468H82.2468C91.142 36.2468 98.3029 43.4076 98.3029 52.3029V103.822C98.3029 111.634 92.7773 118.099 85.4069 119.56L87.8527 131.787C101.739 127.991 111.902 115.359 111.902 100.235V92.9011L120.233 76.2381L111.902 63.7408V54.8324C111.902 36.6895 97.2962 22.0833 79.1534 22.0833H76.5758Z" fill="url(#paint1_linear_1_108)"/>
<path d="M61.9126 7.1322H40.725C21.1148 7.1322 5.3031 22.9439 5.3031 42.5541V85.4028H6.87744V42.5541C6.87744 23.7889 21.9598 8.70654 40.725 8.70654H61.9126V7.1322Z" fill="#560591"/>
<path d="M83.2542 7.9198H93.9298C113.118 7.9198 128.565 23.367 128.565 42.5548V110.375C128.565 129.562 113.118 145.01 93.9298 145.01H90.2847" stroke="#560591" stroke-width="1.57446"/>
<path d="M61.9127 11.0687C63.6518 11.0687 65.0616 9.65889 65.0616 7.91979C65.0616 6.18069 63.6518 4.77087 61.9127 4.77087C60.1736 4.77087 58.7638 6.18069 58.7638 7.91979C58.7638 9.65889 60.1736 11.0687 61.9127 11.0687Z" fill="#1E046C" stroke="#1E046C" stroke-width="0.78723"/>
<path d="M5.81676 90.3049C7.55586 90.3049 8.96568 88.8951 8.96568 87.156C8.96568 85.4169 7.55586 84.0071 5.81676 84.0071C4.07767 84.0071 2.66785 85.4169 2.66785 87.156C2.66785 88.8951 4.07767 90.3049 5.81676 90.3049Z" fill="#1E046C" stroke="#1E046C" stroke-width="0.78723"/>
<path d="M81.0751 11.0687C82.8142 11.0687 84.224 9.65889 84.224 7.91979C84.224 6.18069 82.8142 4.77087 81.0751 4.77087C79.336 4.77087 77.9261 6.18069 77.9261 7.91979C77.9261 9.65889 79.336 11.0687 81.0751 11.0687Z" fill="#7E00FF" stroke="#A562EA" stroke-width="0.78723"/>
<path d="M87.7402 147.704C89.4793 147.704 90.8891 146.294 90.8891 144.555C90.8891 142.816 89.4793 141.406 87.7402 141.406C86.0011 141.406 84.5913 142.816 84.5913 144.555C84.5913 146.294 86.0011 147.704 87.7402 147.704Z" fill="#7E00FF" stroke="#A562EA" stroke-width="0.78723"/>
<path d="M57.1692 22.0825C39.0263 22.0825 24.4209 36.6888 24.4209 54.8317V63.7409L16.0894 76.2382L24.4209 92.9012V100.235C24.4209 118.378 39.0263 132.984 57.1692 132.984H60.7777C60.2371 132.59 59.6755 132.212 59.1846 131.783C58.3868 131.084 57.6611 130.333 57.0285 129.513C56.3958 128.694 55.8561 127.806 55.4305 126.833C55.2178 126.347 55.0336 125.84 54.8805 125.31C54.7275 124.78 54.6058 124.228 54.5176 123.65C54.4295 123.072 54.3747 122.469 54.3566 121.839C54.3386 121.213 54.3578 120.559 54.4143 119.878H52.9742C44.0789 119.878 36.9182 112.716 36.9182 103.821V52.303C36.9182 43.4077 44.0789 36.2461 52.9742 36.2461H68.0783L76.5758 22.0825H57.1692Z" fill="url(#paint2_linear_1_108)"/>
<path d="M65.6179 27.9625H55.8023C41.6872 27.9625 30.2976 39.3497 30.2976 53.4648V102.066H31.872V53.4648C31.872 40.1947 42.5322 29.5369 55.8023 29.5369H65.5389L65.6179 27.9625Z" fill="#C921AA"/>
<path d="M65.2452 32.7307C66.9843 32.7307 68.3941 31.3209 68.3941 29.5818C68.3941 27.8427 66.9843 26.4329 65.2452 26.4329C63.5061 26.4329 62.0963 27.8427 62.0963 29.5818C62.0963 31.3209 63.5061 32.7307 65.2452 32.7307Z" fill="#C921AA" stroke="#C921AA" stroke-width="0.78723"/>
<path d="M31.0859 104.381C32.825 104.381 34.2348 102.971 34.2348 101.232C34.2348 99.4927 32.825 98.0829 31.0859 98.0829C29.3468 98.0829 27.937 99.4927 27.937 101.232C27.937 102.971 29.3468 104.381 31.0859 104.381Z" fill="#C921AA" stroke="#C921AA" stroke-width="0.78723"/>
<path d="M104.83 56.4963L103.255 57.4808V102.51C103.255 109.396 100.369 115.562 95.7529 119.917L96.6284 121.23C101.664 116.576 104.83 109.93 104.83 102.51V56.4963Z" fill="#C921AA"/>
<path d="M103.57 59.3911C105.309 59.3911 106.719 57.9813 106.719 56.2422C106.719 54.5031 105.309 53.0933 103.57 53.0933C101.831 53.0933 100.421 54.5031 100.421 56.2422C100.421 57.9813 101.831 59.3911 103.57 59.3911Z" fill="#C921AA" stroke="#C921AA" stroke-width="0.78723"/>
<path d="M93.5724 125.209C95.3115 125.209 96.7213 123.799 96.7213 122.06C96.7213 120.321 95.3115 118.911 93.5724 118.911C91.8333 118.911 90.4235 120.321 90.4235 122.06C90.4235 123.799 91.8333 125.209 93.5724 125.209Z" fill="#C921AA" stroke="#C921AA" stroke-width="0.78723"/>
<path d="M52.3533 70.7324L73.9037 71.1172C73.9037 71.1172 73.7252 106.754 74.2885 119.221C74.4022 121.739 81.6002 121.145 81.6002 121.145V132.305C81.6002 132.305 72.457 133.495 67.3616 132.69C67.3616 132.69 60.1695 129.405 60.0499 123.839C59.8143 112.88 60.3571 96.2963 60.0499 84.5863C59.9822 82.0057 56.2999 78.8217 53.1229 81.1228C50.3103 83.1601 52.3533 70.7324 52.3533 70.7324Z" fill="#C921AA"/>
<path d="M62.7458 65.6893C67.9631 65.6893 72.1926 61.4598 72.1926 56.2425C72.1926 51.0252 67.9631 46.7958 62.7458 46.7958C57.5285 46.7958 53.2991 51.0252 53.2991 56.2425C53.2991 61.4598 57.5285 65.6893 62.7458 65.6893Z" fill="#C921AA"/>
<defs>
<linearGradient id="paint0_linear_1_108" x1="43.6327" y1="47.4381" x2="49.721" y2="179.858" gradientUnits="userSpaceOnUse">
<stop stop-color="#C370FF"/>
<stop offset="0.795222" stop-color="#8216FD"/>
<stop offset="1" stop-color="#8121C9"/>
</linearGradient>
<linearGradient id="paint1_linear_1_108" x1="78.5757" y1="42.912" x2="129.277" y2="146.101" gradientUnits="userSpaceOnUse">
<stop stop-color="#A562EA"/>
<stop offset="0.73128" stop-color="#560591"/>
<stop offset="1" stop-color="#560591"/>
</linearGradient>
<linearGradient id="paint2_linear_1_108" x1="70.2442" y1="56.2418" x2="100.117" y2="129.438" gradientUnits="userSpaceOnUse">
<stop stop-color="#560591"/>
<stop offset="1" stop-color="#C370FF"/>
</linearGradient>
</defs>
</svg>
