<svg width="617" height="217" viewBox="0 0 617 217" fill="none" xmlns="http://www.w3.org/2000/svg">
<g filter="url(#filter0_d_1_29)">
<path d="M198.268 63.133V91.1253H235.337V109.05H198.268V151H173.174V45.285H242.659L240.066 63.133H198.268ZM293.932 67.328C302.271 67.328 309.365 69.1077 315.212 72.6671C321.06 76.2266 325.535 81.2352 328.636 87.693C331.738 94.1 333.289 101.626 333.289 110.27C333.289 119.27 331.713 127.025 328.56 133.533C325.458 139.991 320.984 144.949 315.136 148.407C309.288 151.864 302.22 153.593 293.932 153.593C285.694 153.593 278.626 151.89 272.728 148.483C266.88 145.076 262.38 140.144 259.227 133.686C256.126 127.228 254.575 119.474 254.575 110.423C254.575 101.829 256.126 94.3034 259.227 87.8456C262.38 81.3877 266.88 76.3537 272.728 72.7434C278.626 69.1331 285.694 67.328 293.932 67.328ZM293.932 85.0997C289 85.0997 285.338 87.1337 282.949 91.2016C280.609 95.2187 279.44 101.626 279.44 110.423C279.44 119.372 280.609 125.855 282.949 129.872C285.338 133.889 289 135.898 293.932 135.898C298.864 135.898 302.5 133.889 304.839 129.872C307.229 125.855 308.424 119.321 308.424 110.27C308.424 101.524 307.229 95.1424 304.839 91.1253C302.5 87.1083 298.864 85.0997 293.932 85.0997ZM351.077 151V134.83H361.756V86.015H351.077V69.9976H380.138L384.561 88.2269C387.46 81.2606 391.146 76.074 395.621 72.6671C400.147 69.2603 405.664 67.5568 412.172 67.5568C414.918 67.5568 417.359 67.7856 419.495 68.2433C421.63 68.6501 423.639 69.2348 425.52 69.9976L418.198 89.9049C416.723 89.4982 415.249 89.1931 413.774 88.9897C412.3 88.7863 410.672 88.6846 408.893 88.6846C403.604 88.6846 398.952 90.8457 394.935 95.1678C390.968 99.49 387.943 104.982 385.858 111.643V134.83H401.876V151H351.077ZM405.918 103.863V80.2182L409.503 69.9976H425.52L421.02 103.863H405.918ZM584.813 35.2931C590.711 35.2931 595.923 35.7762 600.449 36.7423C604.974 37.6576 609.017 38.878 612.576 40.4035L605.94 56.1158C603.144 55.048 600.271 54.2852 597.322 53.8276C594.372 53.3191 591.449 53.0649 588.55 53.0649C583.77 53.0649 580.338 53.9293 578.253 55.6582C576.219 57.387 575.202 60.26 575.202 64.2771V75.1079H601.593L598.923 91.8118H575.202V151H551.252V91.8118H534.243V75.1079H551.252V63.3618C551.252 58.0226 552.524 53.2428 555.066 49.0224C557.608 44.8019 561.371 41.4713 566.355 39.0305C571.338 36.5389 577.49 35.2931 584.813 35.2931Z" fill="#8216FD"/>
<path d="M491.285 69.9976V134.525H511.879V151H444.224V134.525H467.182V86.4726H444.987V69.9976H491.285ZM476.717 27.5895C480.886 27.5895 484.293 28.8862 486.937 31.4795C489.581 34.0728 490.903 37.3017 490.903 41.1662C490.903 45.0307 489.581 48.2851 486.937 50.9292C484.293 53.5225 480.886 54.8192 476.717 54.8192C472.496 54.8192 469.038 53.5225 466.343 50.9292C463.699 48.2851 462.377 45.0307 462.377 41.1662C462.377 37.3017 463.699 34.0728 466.343 31.4795C469.038 28.8862 472.496 27.5895 476.717 27.5895Z" fill="#C921AA"/>
<path d="M182.781 184.423V186.269H178.716V200.868H182.781V202.715H172.313V200.868H176.378V186.269H172.313V184.423H182.781ZM188.177 202.715V188.727H190.077L190.249 190.666C190.816 189.949 191.524 189.4 192.375 189.019C193.234 188.63 194.066 188.435 194.872 188.435C196.245 188.435 197.241 188.798 197.861 189.524C198.49 190.25 198.804 191.26 198.804 192.553V202.715H196.572V194.2C196.572 193.243 196.519 192.473 196.413 191.889C196.307 191.295 196.085 190.866 195.749 190.6C195.412 190.325 194.89 190.188 194.181 190.188C193.632 190.188 193.114 190.308 192.627 190.547C192.149 190.786 191.719 191.087 191.339 191.45C190.967 191.804 190.657 192.163 190.409 192.526V202.715H188.177ZM215.213 202.011C214.734 202.33 214.154 202.578 213.472 202.755C212.79 202.932 212.122 203.02 211.466 203.02C209.961 203.02 208.801 202.626 207.986 201.838C207.171 201.05 206.764 200.036 206.764 198.796V190.454H203.549V188.727H206.764V185.552L208.996 185.286V188.727H213.831L213.565 190.454H208.996V198.77C208.996 199.549 209.199 200.142 209.607 200.55C210.023 200.957 210.709 201.161 211.666 201.161C212.188 201.161 212.671 201.099 213.114 200.975C213.556 200.851 213.968 200.691 214.349 200.496L215.213 202.011ZM221.791 196.511C221.835 197.592 222.043 198.477 222.415 199.168C222.787 199.85 223.279 200.355 223.89 200.682C224.501 201.001 225.165 201.161 225.882 201.161C226.6 201.161 227.246 201.054 227.822 200.842C228.406 200.629 229.004 200.315 229.615 199.899L230.665 201.373C230.009 201.887 229.261 202.29 228.42 202.582C227.587 202.874 226.733 203.02 225.856 203.02C224.501 203.02 223.345 202.715 222.389 202.104C221.432 201.493 220.702 200.643 220.197 199.553C219.701 198.455 219.453 197.184 219.453 195.741C219.453 194.324 219.705 193.066 220.21 191.968C220.715 190.87 221.423 190.007 222.336 189.378C223.248 188.749 224.324 188.435 225.564 188.435C226.741 188.435 227.755 188.714 228.606 189.272C229.456 189.821 230.107 190.609 230.558 191.636C231.019 192.655 231.249 193.872 231.249 195.289C231.249 195.528 231.245 195.754 231.236 195.967C231.227 196.17 231.214 196.352 231.196 196.511H221.791ZM225.59 190.268C224.554 190.268 223.686 190.635 222.986 191.37C222.296 192.106 221.902 193.243 221.804 194.784H229.097C229.07 193.288 228.743 192.163 228.114 191.41C227.485 190.649 226.644 190.268 225.59 190.268ZM241.414 183.095V199.261C241.414 199.952 241.627 200.443 242.052 200.736C242.486 201.019 243.044 201.161 243.725 201.161C244.151 201.161 244.553 201.116 244.934 201.028C245.315 200.939 245.696 200.82 246.077 200.669L246.674 202.303C246.294 202.489 245.82 202.653 245.253 202.795C244.695 202.945 244.062 203.02 243.354 203.02C242.114 203.02 241.109 202.679 240.338 201.998C239.568 201.307 239.182 200.355 239.182 199.142V184.861H234.892V183.095H241.414ZM257.344 183.095V199.261C257.344 199.952 257.557 200.443 257.982 200.736C258.416 201.019 258.974 201.161 259.656 201.161C260.081 201.161 260.484 201.116 260.865 201.028C261.245 200.939 261.626 200.82 262.007 200.669L262.605 202.303C262.224 202.489 261.75 202.653 261.183 202.795C260.625 202.945 259.992 203.02 259.284 203.02C258.044 203.02 257.039 202.679 256.268 201.998C255.498 201.307 255.113 200.355 255.113 199.142V184.861H250.822V183.095H257.344ZM274.908 188.727V200.948H278.854V202.715H268.36V200.948H272.677V190.494H268.492V188.727H274.908ZM273.128 182.178C273.624 182.178 274.018 182.329 274.311 182.63C274.612 182.931 274.762 183.298 274.762 183.732C274.762 184.184 274.612 184.565 274.311 184.875C274.018 185.176 273.624 185.326 273.128 185.326C272.659 185.326 272.274 185.176 271.973 184.875C271.672 184.565 271.521 184.184 271.521 183.732C271.521 183.298 271.672 182.931 271.973 182.63C272.274 182.329 272.659 182.178 273.128 182.178ZM295.129 187.239L295.82 189.338C295.227 189.524 294.594 189.639 293.921 189.683C293.248 189.728 292.517 189.75 291.729 189.75C292.535 190.122 293.141 190.604 293.549 191.198C293.956 191.782 294.16 192.473 294.16 193.27C294.16 194.191 293.952 195.01 293.535 195.728C293.119 196.445 292.517 197.007 291.729 197.415C290.949 197.822 290.006 198.026 288.899 198.026C288.43 198.026 288.036 198.004 287.717 197.959C287.407 197.915 287.106 197.849 286.814 197.76C286.601 197.902 286.424 198.097 286.282 198.344C286.15 198.592 286.083 198.849 286.083 199.115C286.083 199.451 286.216 199.73 286.482 199.952C286.747 200.173 287.239 200.284 287.956 200.284H290.48C291.419 200.284 292.26 200.452 293.004 200.789C293.757 201.125 294.346 201.577 294.771 202.144C295.205 202.71 295.422 203.357 295.422 204.083C295.422 205.456 294.837 206.51 293.668 207.245C292.508 207.98 290.865 208.347 288.74 208.347C287.252 208.347 286.079 208.192 285.22 207.882C284.361 207.581 283.745 207.116 283.373 206.487C283.01 205.868 282.829 205.084 282.829 204.136H284.848C284.848 204.676 284.954 205.124 285.167 205.478C285.379 205.832 285.764 206.093 286.322 206.262C286.88 206.439 287.682 206.527 288.727 206.527C289.754 206.527 290.591 206.439 291.237 206.262C291.893 206.093 292.375 205.837 292.685 205.491C293.004 205.155 293.163 204.734 293.163 204.229C293.163 203.565 292.862 203.065 292.26 202.728C291.658 202.392 290.905 202.223 290.002 202.223H287.504C286.3 202.223 285.41 201.958 284.834 201.426C284.268 200.895 283.984 200.284 283.984 199.593C283.984 199.142 284.113 198.703 284.369 198.278C284.635 197.853 285.02 197.477 285.525 197.149C284.719 196.724 284.126 196.197 283.745 195.568C283.364 194.939 283.174 194.178 283.174 193.283C283.174 192.336 283.409 191.499 283.878 190.773C284.347 190.038 285.003 189.462 285.844 189.046C286.685 188.63 287.655 188.421 288.753 188.421C289.931 188.413 290.887 188.364 291.622 188.275C292.357 188.178 292.986 188.041 293.509 187.864C294.04 187.686 294.58 187.478 295.129 187.239ZM288.753 190.055C287.628 190.055 286.796 190.361 286.256 190.972C285.724 191.574 285.459 192.345 285.459 193.283C285.459 194.231 285.733 195.01 286.282 195.621C286.831 196.232 287.673 196.538 288.806 196.538C289.798 196.538 290.551 196.25 291.065 195.674C291.587 195.099 291.848 194.297 291.848 193.27C291.848 192.216 291.587 191.419 291.065 190.879C290.551 190.33 289.78 190.055 288.753 190.055ZM301.442 196.511C301.486 197.592 301.695 198.477 302.066 199.168C302.438 199.85 302.93 200.355 303.541 200.682C304.152 201.001 304.816 201.161 305.534 201.161C306.251 201.161 306.897 201.054 307.473 200.842C308.057 200.629 308.655 200.315 309.266 199.899L310.316 201.373C309.66 201.887 308.912 202.29 308.071 202.582C307.238 202.874 306.384 203.02 305.507 203.02C304.152 203.02 302.996 202.715 302.04 202.104C301.083 201.493 300.353 200.643 299.848 199.553C299.352 198.455 299.104 197.184 299.104 195.741C299.104 194.324 299.357 193.066 299.861 191.968C300.366 190.87 301.075 190.007 301.987 189.378C302.899 188.749 303.975 188.435 305.215 188.435C306.393 188.435 307.407 188.714 308.257 189.272C309.107 189.821 309.758 190.609 310.209 191.636C310.67 192.655 310.9 193.872 310.9 195.289C310.9 195.528 310.896 195.754 310.887 195.967C310.878 196.17 310.865 196.352 310.847 196.511H301.442ZM305.241 190.268C304.205 190.268 303.337 190.635 302.638 191.37C301.947 192.106 301.553 193.243 301.455 194.784H308.748C308.722 193.288 308.394 192.163 307.765 191.41C307.136 190.649 306.295 190.268 305.241 190.268ZM315.619 202.715V188.727H317.518L317.691 190.666C318.258 189.949 318.966 189.4 319.817 189.019C320.676 188.63 321.508 188.435 322.314 188.435C323.687 188.435 324.683 188.798 325.303 189.524C325.932 190.25 326.246 191.26 326.246 192.553V202.715H324.014V194.2C324.014 193.243 323.961 192.473 323.855 191.889C323.749 191.295 323.527 190.866 323.191 190.6C322.854 190.325 322.332 190.188 321.623 190.188C321.074 190.188 320.556 190.308 320.069 190.547C319.591 190.786 319.161 191.087 318.78 191.45C318.409 191.804 318.099 192.163 317.851 192.526V202.715H315.619ZM337.872 201.094C338.572 201.094 339.223 200.979 339.825 200.749C340.436 200.519 340.998 200.226 341.512 199.872L342.601 201.333C341.99 201.856 341.255 202.268 340.396 202.569C339.537 202.87 338.696 203.02 337.872 203.02C336.482 203.02 335.295 202.724 334.312 202.13C333.338 201.528 332.594 200.687 332.08 199.606C331.567 198.517 331.31 197.242 331.31 195.781C331.31 194.381 331.567 193.128 332.08 192.021C332.603 190.906 333.351 190.029 334.325 189.391C335.308 188.754 336.5 188.435 337.899 188.435C338.793 188.435 339.63 188.572 340.409 188.847C341.198 189.112 341.919 189.515 342.575 190.055L341.485 191.543C340.892 191.127 340.294 190.817 339.692 190.613C339.099 190.401 338.492 190.294 337.872 190.294C336.668 190.294 335.676 190.746 334.897 191.649C334.117 192.553 333.728 193.93 333.728 195.781C333.728 197.021 333.905 198.035 334.259 198.823C334.622 199.602 335.114 200.178 335.734 200.55C336.362 200.913 337.075 201.094 337.872 201.094ZM349.233 196.511C349.277 197.592 349.485 198.477 349.857 199.168C350.229 199.85 350.721 200.355 351.332 200.682C351.943 201.001 352.607 201.161 353.324 201.161C354.042 201.161 354.688 201.054 355.264 200.842C355.848 200.629 356.446 200.315 357.057 199.899L358.106 201.373C357.451 201.887 356.703 202.29 355.862 202.582C355.029 202.874 354.174 203.02 353.298 203.02C351.943 203.02 350.787 202.715 349.831 202.104C348.874 201.493 348.144 200.643 347.639 199.553C347.143 198.455 346.895 197.184 346.895 195.741C346.895 194.324 347.147 193.066 347.652 191.968C348.157 190.87 348.865 190.007 349.778 189.378C350.69 188.749 351.766 188.435 353.005 188.435C354.183 188.435 355.197 188.714 356.047 189.272C356.898 189.821 357.549 190.609 358 191.636C358.461 192.655 358.691 193.872 358.691 195.289C358.691 195.528 358.687 195.754 358.678 195.967C358.669 196.17 358.656 196.352 358.638 196.511H349.233ZM353.032 190.268C351.996 190.268 351.128 190.635 350.428 191.37C349.738 192.106 349.344 193.243 349.246 194.784H356.539C356.512 193.288 356.185 192.163 355.556 191.41C354.927 190.649 354.086 190.268 353.032 190.268ZM366.359 200.669C366.359 200.235 366.46 199.846 366.664 199.5C366.868 199.146 367.142 198.867 367.488 198.663C367.842 198.451 368.241 198.344 368.683 198.344C369.135 198.344 369.538 198.451 369.892 198.663C370.246 198.867 370.525 199.146 370.729 199.5C370.933 199.846 371.035 200.235 371.035 200.669C371.035 201.103 370.933 201.502 370.729 201.865C370.525 202.219 370.246 202.502 369.892 202.715C369.538 202.919 369.135 203.02 368.683 203.02C368.241 203.02 367.842 202.919 367.488 202.715C367.142 202.502 366.868 202.219 366.664 201.865C366.46 201.502 366.359 201.103 366.359 200.669ZM406.854 197.654C406.854 198.699 406.592 199.629 406.07 200.443C405.547 201.249 404.79 201.882 403.798 202.343C402.806 202.795 401.598 203.02 400.172 203.02C398.835 203.02 397.621 202.817 396.532 202.409C395.452 202.002 394.526 201.426 393.756 200.682L395.124 199.142C395.762 199.735 396.492 200.209 397.316 200.563C398.139 200.908 399.105 201.081 400.212 201.081C400.956 201.081 401.651 200.961 402.297 200.722C402.944 200.474 403.466 200.102 403.865 199.606C404.263 199.102 404.463 198.464 404.463 197.694C404.463 197.1 404.347 196.595 404.117 196.179C403.887 195.763 403.48 195.395 402.895 195.077C402.311 194.749 401.496 194.43 400.451 194.12C399.246 193.766 398.201 193.367 397.316 192.925C396.439 192.473 395.757 191.92 395.27 191.264C394.792 190.609 394.553 189.799 394.553 188.833C394.553 187.921 394.805 187.111 395.31 186.402C395.815 185.694 396.51 185.14 397.396 184.742C398.29 184.334 399.317 184.131 400.477 184.131C401.744 184.131 402.842 184.312 403.772 184.675C404.711 185.03 405.561 185.543 406.322 186.216L404.967 187.717C404.312 187.133 403.608 186.712 402.855 186.455C402.102 186.19 401.336 186.057 400.557 186.057C399.893 186.057 399.282 186.159 398.724 186.362C398.175 186.557 397.732 186.854 397.396 187.252C397.068 187.642 396.904 188.142 396.904 188.754C396.904 189.276 397.046 189.728 397.329 190.108C397.613 190.489 398.091 190.839 398.764 191.158C399.437 191.468 400.353 191.796 401.514 192.141C402.461 192.415 403.338 192.761 404.144 193.177C404.958 193.584 405.614 194.142 406.11 194.851C406.606 195.55 406.854 196.485 406.854 197.654ZM418.281 188.727V200.948H422.226V202.715H411.732V200.948H416.049V190.494H411.865V188.727H418.281ZM416.501 182.178C416.997 182.178 417.391 182.329 417.683 182.63C417.984 182.931 418.135 183.298 418.135 183.732C418.135 184.184 417.984 184.565 417.683 184.875C417.391 185.176 416.997 185.326 416.501 185.326C416.031 185.326 415.646 185.176 415.345 184.875C415.044 184.565 414.893 184.184 414.893 183.732C414.893 183.298 415.044 182.931 415.345 182.63C415.646 182.329 416.031 182.178 416.501 182.178ZM436.35 188.435C436.801 188.435 437.231 188.532 437.638 188.727C438.054 188.922 438.395 189.298 438.661 189.856C438.927 190.414 439.06 191.229 439.06 192.3V202.715H436.987V192.659C436.987 191.782 436.934 191.149 436.828 190.759C436.722 190.37 436.416 190.175 435.911 190.175C435.495 190.175 435.079 190.308 434.663 190.573C434.255 190.83 433.857 191.255 433.467 191.849V202.715H431.381V192.659C431.381 191.782 431.328 191.149 431.222 190.759C431.116 190.37 430.81 190.175 430.305 190.175C429.872 190.175 429.451 190.308 429.043 190.573C428.645 190.83 428.251 191.255 427.861 191.849V202.715H425.802V188.727H427.556L427.689 190.348C428.069 189.807 428.494 189.356 428.964 188.993C429.442 188.621 430.031 188.435 430.731 188.435C431.262 188.435 431.762 188.563 432.232 188.82C432.701 189.068 433.046 189.555 433.268 190.281C433.649 189.732 434.078 189.289 434.556 188.953C435.035 188.607 435.632 188.435 436.35 188.435ZM449.318 188.435C450.557 188.435 451.545 188.736 452.28 189.338C453.024 189.94 453.56 190.79 453.887 191.889C454.215 192.978 454.379 194.253 454.379 195.714C454.379 197.122 454.179 198.38 453.781 199.487C453.391 200.585 452.798 201.448 452.001 202.077C451.204 202.706 450.199 203.02 448.985 203.02C447.453 203.02 446.222 202.48 445.293 201.4V208.068L443.061 208.347V188.727H444.96L445.146 190.68C445.66 189.962 446.271 189.409 446.98 189.019C447.697 188.63 448.476 188.435 449.318 188.435ZM448.786 190.228C448.016 190.228 447.334 190.463 446.74 190.932C446.156 191.393 445.673 191.906 445.293 192.473V199.407C445.656 199.947 446.112 200.377 446.661 200.696C447.219 201.006 447.83 201.161 448.494 201.161C449.654 201.161 450.526 200.718 451.111 199.832C451.695 198.947 451.988 197.57 451.988 195.701C451.988 194.479 451.872 193.465 451.642 192.659C451.412 191.844 451.062 191.238 450.593 190.839C450.123 190.432 449.521 190.228 448.786 190.228ZM464.437 183.095V199.261C464.437 199.952 464.65 200.443 465.075 200.736C465.509 201.019 466.067 201.161 466.749 201.161C467.174 201.161 467.577 201.116 467.958 201.028C468.339 200.939 468.719 200.82 469.1 200.669L469.698 202.303C469.317 202.489 468.843 202.653 468.277 202.795C467.719 202.945 467.085 203.02 466.377 203.02C465.137 203.02 464.132 202.679 463.361 201.998C462.591 201.307 462.206 200.355 462.206 199.142V184.861H457.915V183.095H464.437ZM482.002 188.727V200.948H485.947V202.715H475.453V200.948H479.77V190.494H475.586V188.727H482.002ZM480.222 182.178C480.718 182.178 481.112 182.329 481.404 182.63C481.705 182.931 481.856 183.298 481.856 183.732C481.856 184.184 481.705 184.565 481.404 184.875C481.112 185.176 480.718 185.326 480.222 185.326C479.752 185.326 479.367 185.176 479.066 184.875C478.765 184.565 478.614 184.184 478.614 183.732C478.614 183.298 478.765 182.931 479.066 182.63C479.367 182.329 479.752 182.178 480.222 182.178ZM499.114 182.816C499.867 182.816 500.549 182.882 501.16 183.015C501.771 183.148 502.351 183.334 502.9 183.573L502.183 185.233C501.731 185.038 501.253 184.892 500.748 184.795C500.243 184.698 499.721 184.649 499.181 184.649C498.206 184.649 497.471 184.839 496.975 185.22C496.488 185.601 496.245 186.185 496.245 186.974V189.816H500.987L500.748 191.57H496.245V202.715H494.013V191.57H490.679V189.816H494.013V187.027C494.013 186.159 494.235 185.41 494.677 184.782C495.129 184.153 495.74 183.67 496.51 183.334C497.281 182.988 498.149 182.816 499.114 182.816ZM513.862 189.816V200.948H517.807V202.715H507.313V200.948H511.63V191.57H507.446V189.816H513.862ZM512.082 183.148C512.578 183.148 512.972 183.298 513.264 183.599C513.565 183.901 513.716 184.268 513.716 184.702C513.716 185.154 513.565 185.534 513.264 185.844C512.972 186.145 512.578 186.296 512.082 186.296C511.613 186.296 511.228 186.145 510.926 185.844C510.625 185.534 510.475 185.154 510.475 184.702C510.475 184.268 510.625 183.901 510.926 183.599C511.228 183.298 511.613 183.148 512.082 183.148ZM524.466 196.511C524.51 197.592 524.718 198.477 525.09 199.168C525.462 199.85 525.953 200.355 526.564 200.682C527.175 201.001 527.84 201.161 528.557 201.161C529.274 201.161 529.921 201.054 530.496 200.842C531.081 200.629 531.679 200.315 532.29 199.899L533.339 201.373C532.684 201.887 531.935 202.29 531.094 202.582C530.262 202.874 529.407 203.02 528.53 203.02C527.175 203.02 526.02 202.715 525.063 202.104C524.107 201.493 523.376 200.643 522.871 199.553C522.376 198.455 522.128 197.184 522.128 195.741C522.128 194.324 522.38 193.066 522.885 191.968C523.39 190.87 524.098 190.007 525.01 189.378C525.922 188.749 526.998 188.435 528.238 188.435C529.416 188.435 530.43 188.714 531.28 189.272C532.13 189.821 532.781 190.609 533.233 191.636C533.693 192.655 533.924 193.872 533.924 195.289C533.924 195.528 533.919 195.754 533.91 195.967C533.902 196.17 533.888 196.352 533.871 196.511H524.466ZM528.265 190.268C527.229 190.268 526.361 190.635 525.661 191.37C524.97 192.106 524.576 193.243 524.479 194.784H531.772C531.745 193.288 531.417 192.163 530.789 191.41C530.16 190.649 529.319 190.268 528.265 190.268ZM547.011 182.816L549.243 183.095V202.715H547.29L547.078 200.868C546.555 201.612 545.953 202.157 545.271 202.502C544.598 202.848 543.876 203.02 543.106 203.02C541.892 203.02 540.892 202.715 540.104 202.104C539.315 201.493 538.731 200.643 538.35 199.553C537.969 198.455 537.779 197.184 537.779 195.741C537.779 194.342 537.996 193.093 538.43 191.995C538.864 190.888 539.488 190.02 540.303 189.391C541.126 188.754 542.114 188.435 543.265 188.435C544.071 188.435 544.779 188.576 545.391 188.86C546.002 189.134 546.542 189.542 547.011 190.082V182.816ZM543.85 190.228C542.681 190.228 541.782 190.684 541.153 191.596C540.524 192.508 540.21 193.89 540.21 195.741C540.21 196.945 540.338 197.955 540.595 198.77C540.852 199.584 541.228 200.195 541.724 200.603C542.229 201.01 542.844 201.214 543.571 201.214C544.368 201.214 545.045 200.988 545.603 200.536C546.17 200.085 546.639 199.575 547.011 199.009V192.021C546.63 191.455 546.17 191.016 545.63 190.706C545.089 190.387 544.496 190.228 543.85 190.228ZM557.522 200.669C557.522 200.235 557.623 199.846 557.827 199.5C558.031 199.146 558.305 198.867 558.651 198.663C559.005 198.451 559.403 198.344 559.846 198.344C560.298 198.344 560.701 198.451 561.055 198.663C561.409 198.867 561.688 199.146 561.892 199.5C562.096 199.846 562.197 200.235 562.197 200.669C562.197 201.103 562.096 201.502 561.892 201.865C561.688 202.219 561.409 202.502 561.055 202.715C560.701 202.919 560.298 203.02 559.846 203.02C559.403 203.02 559.005 202.919 558.651 202.715C558.305 202.502 558.031 202.219 557.827 201.865C557.623 201.502 557.522 201.103 557.522 200.669Z" fill="#560591"/>
<path d="M82.5717 46.6098H45.9187C22.696 46.6098 4 65.3064 4 88.5293V158.929C4 182.152 22.696 200.848 45.9187 200.848H87.6544L75.9105 186.167H48.4125C30.2697 186.167 15.6641 171.561 15.6641 153.418V93.5225C15.6641 75.3796 30.2697 60.7733 48.4125 60.7733H68.4081L82.5717 46.6098Z" fill="url(#paint0_linear_1_29)"/>
<path d="M80.5758 68.6931L72.0784 82.8566H86.2468C95.142 82.8566 102.303 90.0174 102.303 98.9127V150.431C102.303 158.243 96.7773 164.709 89.4069 166.17L91.8527 178.397C105.739 174.601 115.902 161.969 115.902 146.845V139.511L124.233 122.848L115.902 110.351V101.442C115.902 83.2993 101.296 68.6931 83.1534 68.6931H80.5758Z" fill="url(#paint1_linear_1_29)"/>
<path d="M65.9127 53.7419H44.7252C25.1149 53.7419 9.30322 69.5536 9.30322 89.1639V132.013H10.8776V89.1639C10.8776 70.3986 25.9599 55.3163 44.7252 55.3163H65.9127V53.7419Z" fill="#560591"/>
<path d="M87.2542 54.5296H97.9298C117.118 54.5296 132.565 69.9768 132.565 89.1646V156.984C132.565 176.172 117.118 191.619 97.9298 191.619H94.2847" stroke="#560591" stroke-width="1.57446"/>
<path d="M65.9127 57.6785C67.6518 57.6785 69.0616 56.2687 69.0616 54.5296C69.0616 52.7905 67.6518 51.3806 65.9127 51.3806C64.1736 51.3806 62.7638 52.7905 62.7638 54.5296C62.7638 56.2687 64.1736 57.6785 65.9127 57.6785Z" fill="#1E046C" stroke="#1E046C" stroke-width="0.78723"/>
<path d="M9.81683 136.915C11.5559 136.915 12.9657 135.505 12.9657 133.766C12.9657 132.027 11.5559 130.617 9.81683 130.617C8.07773 130.617 6.66791 132.027 6.66791 133.766C6.66791 135.505 8.07773 136.915 9.81683 136.915Z" fill="#1E046C" stroke="#1E046C" stroke-width="0.78723"/>
<path d="M85.0751 57.6785C86.8142 57.6785 88.224 56.2687 88.224 54.5296C88.224 52.7905 86.8142 51.3806 85.0751 51.3806C83.336 51.3806 81.9262 52.7905 81.9262 54.5296C81.9262 56.2687 83.336 57.6785 85.0751 57.6785Z" fill="#7E00FF" stroke="#A562EA" stroke-width="0.78723"/>
<path d="M91.7403 194.314C93.4794 194.314 94.8892 192.904 94.8892 191.165C94.8892 189.426 93.4794 188.016 91.7403 188.016C90.0012 188.016 88.5914 189.426 88.5914 191.165C88.5914 192.904 90.0012 194.314 91.7403 194.314Z" fill="#7E00FF" stroke="#A562EA" stroke-width="0.78723"/>
<path d="M61.1693 68.6922C43.0264 68.6922 28.4209 83.2985 28.4209 101.441V110.351L20.0894 122.848L28.4209 139.511V146.845C28.4209 164.988 43.0264 179.593 61.1693 179.593H64.7777C64.2371 179.2 63.6755 178.822 63.1846 178.392C62.3868 177.694 61.6612 176.943 61.0286 176.123C60.3959 175.304 59.8561 174.415 59.4306 173.443C59.2178 172.957 59.0337 172.45 58.8806 171.92C58.7275 171.39 58.6059 170.837 58.5177 170.259C58.4295 169.682 58.3747 169.079 58.3566 168.449C58.3387 167.823 58.3579 167.169 58.4144 166.487H56.9743C48.079 166.487 40.9182 159.326 40.9182 150.431V98.9127C40.9182 90.0175 48.079 82.8558 56.9743 82.8558H72.0784L80.5759 68.6922H61.1693Z" fill="url(#paint2_linear_1_29)"/>
<path d="M69.618 74.5723H59.8024C45.6873 74.5723 34.2977 85.9595 34.2977 100.075V148.676H35.8721V100.075C35.8721 86.8045 46.5323 76.1467 59.8024 76.1467H69.539L69.618 74.5723Z" fill="#C921AA"/>
<path d="M69.2453 79.3404C70.9844 79.3404 72.3942 77.9306 72.3942 76.1915C72.3942 74.4524 70.9844 73.0426 69.2453 73.0426C67.5062 73.0426 66.0964 74.4524 66.0964 76.1915C66.0964 77.9306 67.5062 79.3404 69.2453 79.3404Z" fill="#C921AA" stroke="#C921AA" stroke-width="0.78723"/>
<path d="M35.0861 150.991C36.8252 150.991 38.235 149.581 38.235 147.842C38.235 146.103 36.8252 144.693 35.0861 144.693C33.347 144.693 31.9371 146.103 31.9371 147.842C31.9371 149.581 33.347 150.991 35.0861 150.991Z" fill="#C921AA" stroke="#C921AA" stroke-width="0.78723"/>
<path d="M108.83 103.106L107.255 104.091V149.12C107.255 156.006 104.369 162.172 99.753 166.526L100.628 167.84C105.664 163.185 108.83 156.54 108.83 149.12V103.106Z" fill="#C921AA"/>
<path d="M107.57 106.001C109.309 106.001 110.719 104.591 110.719 102.852C110.719 101.113 109.309 99.7031 107.57 99.7031C105.831 99.7031 104.421 101.113 104.421 102.852C104.421 104.591 105.831 106.001 107.57 106.001Z" fill="#C921AA" stroke="#C921AA" stroke-width="0.78723"/>
<path d="M97.5725 171.819C99.3116 171.819 100.721 170.409 100.721 168.67C100.721 166.931 99.3116 165.521 97.5725 165.521C95.8334 165.521 94.4236 166.931 94.4236 168.67C94.4236 170.409 95.8334 171.819 97.5725 171.819Z" fill="#C921AA" stroke="#C921AA" stroke-width="0.78723"/>
<path d="M56.3534 117.342L77.9037 117.727C77.9037 117.727 77.7252 153.364 78.2886 165.831C78.4022 168.348 85.6003 167.755 85.6003 167.755V178.915C85.6003 178.915 76.4571 180.105 71.3617 179.3C71.3617 179.3 64.1696 176.014 64.0499 170.449C63.8143 159.49 64.3572 142.906 64.0499 131.196C63.9822 128.615 60.2999 125.431 57.123 127.733C54.3104 129.77 56.3534 117.342 56.3534 117.342Z" fill="#C921AA"/>
<path d="M66.7459 112.299C71.9632 112.299 76.1926 108.07 76.1926 102.852C76.1926 97.635 71.9632 93.4055 66.7459 93.4055C61.5286 93.4055 57.2991 97.635 57.2991 102.852C57.2991 108.07 61.5286 112.299 66.7459 112.299Z" fill="#C921AA"/>
</g>
<defs>
<filter id="filter0_d_1_29" x="0" y="27.5895" width="616.576" height="188.758" filterUnits="userSpaceOnUse" color-interpolation-filters="sRGB">
<feFlood flood-opacity="0" result="BackgroundImageFix"/>
<feColorMatrix in="SourceAlpha" type="matrix" values="0 0 0 0 0 0 0 0 0 0 0 0 0 0 0 0 0 0 127 0" result="hardAlpha"/>
<feOffset dy="4"/>
<feGaussianBlur stdDeviation="2"/>
<feComposite in2="hardAlpha" operator="out"/>
<feColorMatrix type="matrix" values="0 0 0 0 0 0 0 0 0 0 0 0 0 0 0 0 0 0 0.25 0"/>
<feBlend mode="normal" in2="BackgroundImageFix" result="effect1_dropShadow_1_29"/>
<feBlend mode="normal" in="SourceGraphic" in2="effect1_dropShadow_1_29" result="shape"/>
</filter>
<linearGradient id="paint0_linear_1_29" x1="47.6327" y1="94.0479" x2="53.721" y2="226.468" gradientUnits="userSpaceOnUse">
<stop stop-color="#C370FF"/>
<stop offset="0.795222" stop-color="#8216FD"/>
<stop offset="1" stop-color="#8121C9"/>
</linearGradient>
<linearGradient id="paint1_linear_1_29" x1="82.5757" y1="89.5218" x2="133.277" y2="192.711" gradientUnits="userSpaceOnUse">
<stop stop-color="#A562EA"/>
<stop offset="0.73128" stop-color="#560591"/>
<stop offset="1" stop-color="#560591"/>
</linearGradient>
<linearGradient id="paint2_linear_1_29" x1="74.2442" y1="102.852" x2="104.117" y2="176.048" gradientUnits="userSpaceOnUse">
<stop stop-color="#560591"/>
<stop offset="1" stop-color="#C370FF"/>
</linearGradient>
</defs>
</svg>
